<svg xmlns="http://www.w3.org/2000/svg" xmlns:xlink="http://www.w3.org/1999/xlink" width="521" height="572" viewBox="0 0 521 572">
  <defs>
    <clipPath id="clip-path">
      <rect id="Rectangle_7467" data-name="Rectangle 7467" width="370.855" height="417.251" fill="none"/>
    </clipPath>
    <clipPath id="clip-path-2">
      <path id="Path_9265" data-name="Path 9265" d="M310.886,182.411v0M186.751,129.929s34.114,8.2,57.858,19.94S299.1,207.55,299.1,207.55s11.649-25.1,11.783-25.139c-10.994-16.327-37.528-35.545-57.165-42.614-21.89-8.949-50.114-9.952-61.675-9.952-3.343,0-5.295.084-5.295.084" fill="none"/>
    </clipPath>
    <clipPath id="clip-logo-side_1">
      <rect width="521" height="572"/>
    </clipPath>
  </defs>
  <g id="logo-side_1" data-name="logo-side – 1" clip-path="url(#clip-logo-side_1)">
    <path id="Rectangle_47" data-name="Rectangle 47" d="M0,0H521a0,0,0,0,1,0,0V542a30,30,0,0,1-30,30H30A30,30,0,0,1,0,542V0A0,0,0,0,1,0,0Z" fill="#fff"/>
    <g id="Group_19608" data-name="Group 19608" transform="translate(75 101)">
      <g id="Group_19603" data-name="Group 19603">
        <g id="Group_19602" data-name="Group 19602" clip-path="url(#clip-path)">
          <path id="Path_9263" data-name="Path 9263" d="M157.523,264.646A133.455,133.455,0,0,1,53.64,160.758a134.814,134.814,0,0,1,0-53.81A133.455,133.455,0,0,1,157.522,3.07a134.815,134.815,0,0,1,53.81,0A133.455,133.455,0,0,1,315.216,106.953a134.815,134.815,0,0,1,0,53.81A132.773,132.773,0,0,1,295.128,208.5a134.246,134.246,0,0,1-36.06,36.06c-1.333.9-2.7,1.79-4.072,2.644V197.934H185.8V129.758h63.66a65.156,65.156,0,1,0-65.028,69.255c.3,0,.606,0,.911-.007v68.352h-.911a134.545,134.545,0,0,1-26.9-2.712" fill="#1cbcd8"/>
        </g>
      </g>
      <g id="Group_19605" data-name="Group 19605">
        <g id="Group_19604" data-name="Group 19604" clip-path="url(#clip-path-2)">
          <path id="Path_9264" data-name="Path 9264" d="M157.106,264.346A133.493,133.493,0,0,1,53.2,160.436a134.838,134.838,0,0,1,0-53.822A133.487,133.487,0,0,1,157.106,2.713a134.837,134.837,0,0,1,53.822,0,133.476,133.476,0,0,1,103.906,103.9,134.838,134.838,0,0,1,0,53.822,132.786,132.786,0,0,1-20.092,47.746,134.277,134.277,0,0,1-36.068,36.068c-1.333.9-2.7,1.791-4.073,2.645v-49.28H185.388v-68.19h63.67a65.17,65.17,0,1,0-65.041,69.27c.3,0,.606,0,.911-.007v68.363h-.911a134.612,134.612,0,0,1-26.911-2.7" fill="#239db2"/>
        </g>
      </g>
      <g id="Group_19607" data-name="Group 19607">
        <g id="Group_19606" data-name="Group 19606" clip-path="url(#clip-path)">
          <path id="Path_9266" data-name="Path 9266" d="M316.995,293.358h-72.21a65.982,65.982,0,0,0,6.307-28.318c0-36.265-29.233-65.971-65.164-66.22V129.358a134.315,134.315,0,0,1,26.639,2.756,133.082,133.082,0,0,1,48.079,20.416A135.752,135.752,0,0,1,317.2,237.7a138.311,138.311,0,0,1,0,54.689c-.064.316-.132.643-.2.972Z" fill="#c0db00"/>
          <path id="Path_9267" data-name="Path 9267" d="M17.285,415.358,10.827,391.02h3.3l3.7,15.954q.6,2.506,1.029,4.981.93-3.9,1.1-4.5L24.59,391.02h3.884l3.487,12.318a65.261,65.261,0,0,1,1.892,8.617q.465-2.307,1.212-5.3l3.819-15.639h3.237l-6.674,24.338h-3.1l-5.13-18.544q-.648-2.325-.764-2.855-.382,1.677-.714,2.855l-5.163,18.544Z" fill="#606060"/>
          <path id="Path_9268" data-name="Path 9268" d="M47.233,415.358V391.02h17.6v2.872H50.454v7.454H63.918V404.2H50.454v8.284H65.395v2.872Z" fill="#606060"/>
          <path id="Path_9269" data-name="Path 9269" d="M83.237,415.358V391.02h9.131a11.308,11.308,0,0,1,4.474.738,5.764,5.764,0,0,1,2.64,2.276,6,6,0,0,1,.955,3.212,5.523,5.523,0,0,1-.847,2.938,6.051,6.051,0,0,1-2.557,2.225,6.354,6.354,0,0,1,3.4,2.208,5.913,5.913,0,0,1,1.187,3.685,7.1,7.1,0,0,1-.722,3.179,6.152,6.152,0,0,1-1.785,2.267,7.462,7.462,0,0,1-2.664,1.2,16.274,16.274,0,0,1-3.926.406Zm3.221-14.111h5.263a11.753,11.753,0,0,0,3.071-.282,3.419,3.419,0,0,0,1.851-1.212,3.493,3.493,0,0,0,.623-2.125,3.913,3.913,0,0,0-.581-2.133,2.941,2.941,0,0,0-1.661-1.262,13.849,13.849,0,0,0-3.7-.341H86.458Zm0,11.239h6.06a14.017,14.017,0,0,0,2.191-.116,5.273,5.273,0,0,0,1.859-.664,3.525,3.525,0,0,0,1.229-1.354,4.232,4.232,0,0,0,.481-2.05,4.046,4.046,0,0,0-.7-2.366,3.681,3.681,0,0,0-1.934-1.41,12,12,0,0,0-3.561-.407H86.458Z" fill="#606060"/>
          <path id="Path_9270" data-name="Path 9270" d="M124.059,391.021h3.221v14.062a16.652,16.652,0,0,1-.83,5.827,7.117,7.117,0,0,1-3,3.511,10.612,10.612,0,0,1-5.686,1.353,11.685,11.685,0,0,1-5.6-1.179,6.724,6.724,0,0,1-3.1-3.412,16.243,16.243,0,0,1-.93-6.1V391.021h3.221v14.045a13.7,13.7,0,0,0,.589,4.674,4.473,4.473,0,0,0,2.026,2.315,7.026,7.026,0,0,0,3.511.814q3.552,0,5.063-1.611t1.511-6.192Z" fill="#606060"/>
          <rect id="Rectangle_7468" data-name="Rectangle 7468" width="3.221" height="24.338" transform="translate(135.23 391.021)" fill="#606060"/>
          <path id="Path_9271" data-name="Path 9271" d="M146.035,415.358V391.02h3.221v21.466h11.986v2.872Z" fill="#606060"/>
          <path id="Path_9272" data-name="Path 9272" d="M167.117,415.358V391.02H175.5a20.289,20.289,0,0,1,4.333.349,8.241,8.241,0,0,1,3.569,1.743,9.913,9.913,0,0,1,2.881,4.158,16.341,16.341,0,0,1,.954,5.786,16.981,16.981,0,0,1-.647,4.914,11.913,11.913,0,0,1-1.66,3.544,8.821,8.821,0,0,1-2.217,2.209,9.033,9.033,0,0,1-2.9,1.22,16.622,16.622,0,0,1-3.909.415Zm3.221-2.872h5.2a12.605,12.605,0,0,0,3.777-.448,5.407,5.407,0,0,0,2.183-1.262,7.673,7.673,0,0,0,1.785-3.08,15.057,15.057,0,0,0,.639-4.689,11.339,11.339,0,0,0-1.253-5.87,6.312,6.312,0,0,0-3.047-2.747,12.591,12.591,0,0,0-4.167-.5h-5.113Z" fill="#606060"/>
          <path id="Path_9273" data-name="Path 9273" d="M223.642,412.752a19.732,19.732,0,0,0,4.134,2.258l-.947,2.241a18.982,18.982,0,0,1-5.229-2.988,12.059,12.059,0,0,1-5.977,1.511,11.537,11.537,0,0,1-5.993-1.594,10.644,10.644,0,0,1-4.142-4.483,14.269,14.269,0,0,1-1.453-6.507,14.593,14.593,0,0,1,1.461-6.558,10.285,10.285,0,0,1,4.159-4.5,11.933,11.933,0,0,1,6.035-1.544,11.7,11.7,0,0,1,6.076,1.6,10.462,10.462,0,0,1,4.125,4.482,14.516,14.516,0,0,1,1.42,6.5,15.116,15.116,0,0,1-.913,5.4,11.346,11.346,0,0,1-2.756,4.175m-7.089-4.117a11.95,11.95,0,0,1,4.6,2.324q2.838-2.589,2.838-7.786a12.36,12.36,0,0,0-1-5.163,7.741,7.741,0,0,0-2.939-3.429,8.421,8.421,0,0,0-10.317,1.246q-2.374,2.465-2.374,7.363,0,4.748,2.348,7.288a7.816,7.816,0,0,0,6,2.54,8.244,8.244,0,0,0,3.254-.648,10.439,10.439,0,0,0-3.187-1.394Z" fill="#606060"/>
          <path id="Path_9274" data-name="Path 9274" d="M249.654,391.021h3.221v14.062a16.675,16.675,0,0,1-.83,5.827,7.117,7.117,0,0,1-3,3.511,10.614,10.614,0,0,1-5.686,1.353,11.682,11.682,0,0,1-5.6-1.179,6.724,6.724,0,0,1-3.1-3.412,16.243,16.243,0,0,1-.93-6.1V391.021h3.221v14.045a13.7,13.7,0,0,0,.589,4.674,4.471,4.471,0,0,0,2.025,2.315,7.03,7.03,0,0,0,3.512.814q3.552,0,5.063-1.611t1.511-6.192Z" fill="#606060"/>
          <path id="Path_9275" data-name="Path 9275" d="M257.605,415.358l9.346-24.338h3.47l9.961,24.338h-3.669l-2.839-7.371H263.7l-2.673,7.371Zm7.022-9.994h8.251l-2.54-6.74q-1.163-3.072-1.727-5.047a31.085,31.085,0,0,1-1.311,4.648Z" fill="#606060"/>
          <path id="Path_9276" data-name="Path 9276" d="M284.862,415.358V391.02h3.221v21.466h11.986v2.872Z" fill="#606060"/>
          <rect id="Rectangle_7469" data-name="Rectangle 7469" width="3.221" height="24.338" transform="translate(306.492 391.021)" fill="#606060"/>
          <path id="Path_9277" data-name="Path 9277" d="M323.623,415.358V393.892H315.6V391.02h19.29v2.872h-8.05v21.466Z" fill="#606060"/>
          <path id="Path_9278" data-name="Path 9278" d="M347.1,415.358v-10.31l-9.38-14.028h3.918l4.8,7.338q1.329,2.058,2.474,4.117,1.1-1.908,2.656-4.3l4.715-7.155h3.752l-9.712,14.028v10.31Z" fill="#606060"/>
          <path id="Path_9279" data-name="Path 9279" d="M113.9,349.724H91.558V374H77.194V315.033H91.558v23.1H113.9v-23.1h14.364V374H113.9Z" fill="#1cbcd8"/>
          <path id="Path_9280" data-name="Path 9280" d="M159.933,374.673c-13.776,0-24.192-9.241-24.192-24.108s10.668-24.108,24.36-24.108c13.776,0,24.36,9.24,24.36,24.108s-10.752,24.108-24.528,24.108m0-12.432c5.124,0,9.912-3.78,9.912-11.676,0-7.98-4.7-11.677-9.744-11.677-5.208,0-9.744,3.7-9.744,11.677,0,7.9,4.368,11.676,9.576,11.676" fill="#1cbcd8"/>
          <path id="Path_9281" data-name="Path 9281" d="M256.7,348.548c0-6.132-3.527-9.491-8.987-9.491s-8.989,3.359-8.989,9.491V374h-14.28V348.548c0-6.132-3.527-9.491-8.987-9.491s-8.989,3.359-8.989,9.491V374H192.1V327.128h14.364v5.88c2.772-3.779,7.56-6.384,13.692-6.384,7.057,0,12.769,3.109,15.96,8.736a18.853,18.853,0,0,1,15.792-8.736c11.592,0,19.068,7.393,19.068,19.992V374H256.7Z" fill="#1cbcd8"/>
          <path id="Path_9282" data-name="Path 9282" d="M301.892,374.673c-13.776,0-23.688-9.241-23.688-24.108s9.744-24.108,23.688-24.108c13.692,0,23.352,9.072,23.352,23.352a36.268,36.268,0,0,1-.252,4.2H292.484c.5,6.132,4.284,8.989,8.9,8.989a7.638,7.638,0,0,0,7.477-4.536h15.288c-2.269,9.156-10.584,16.212-22.26,16.212m-9.324-28.644h17.976c0-5.124-4.033-8.064-8.82-8.064-4.7,0-8.316,2.856-9.156,8.064" fill="#1cbcd8"/>
          <path id="Path_9283" data-name="Path 9283" d="M351.872,374.672c-12.517,0-20.916-6.972-21.588-16.044h14.2c.336,3.276,3.277,5.46,7.225,5.46,3.695,0,5.628-1.68,5.628-3.78,0-7.56-25.536-2.1-25.536-19.32,0-7.98,6.8-14.532,19.068-14.532,12.1,0,18.816,6.72,19.739,15.96H357.332c-.42-3.191-2.856-5.292-6.889-5.292-3.359,0-5.207,1.344-5.207,3.612,0,7.476,25.367,2.184,25.619,19.656,0,8.148-7.223,14.28-18.983,14.28" fill="#1cbcd8"/>
          <path id="Path_9284" data-name="Path 9284" d="M48.888,364.257,61.824,379.8H44.436l-7.56-10.164a33.319,33.319,0,0,1-6.552.672C13.608,370.3,0,357.789,0,340.064s13.608-30.155,30.324-30.155c16.8,0,30.156,12.432,30.156,30.155a29.762,29.762,0,0,1-11.592,24.193M30.324,357.2c9.408,0,15.54-6.8,15.54-17.137,0-10.5-6.132-17.135-15.54-17.135-9.576,0-15.624,6.636-15.624,17.135,0,10.332,6.048,17.137,15.624,17.137" fill="#1cbcd8"/>
        </g>
      </g>
    </g>
  </g>
</svg>
