<svg xmlns="http://www.w3.org/2000/svg" xmlns:xlink="http://www.w3.org/1999/xlink" width="907" height="324" viewBox="0 0 907 324">
  <defs>
    <clipPath id="clip-path">
      <path id="Path_52" data-name="Path 52" d="M-4534.815,447.55s42.85-1.845,74.055,10.913c21.716,7.818,51.059,29.07,63.214,47.125,0-.282-13.03,27.8-13.03,27.8s-34-50.8-60.259-63.784S-4534.815,447.55-4534.815,447.55Z" transform="translate(4534.815 -447.457)" fill="#239db2"/>
    </clipPath>
    <clipPath id="clip-logo_2_1">
      <rect width="907" height="324"/>
    </clipPath>
  </defs>
  <g id="logo_2_1" data-name="logo 2 – 1" clip-path="url(#clip-logo_2_1)">
    <g id="Group_36" data-name="Group 36" transform="translate(0.479 -0.29)">
      <path id="Union_8" data-name="Union 8" d="M118.172,292.993a147.193,147.193,0,0,1-52.921-22.269,148.439,148.439,0,0,1-53.621-65.116,147.232,147.232,0,0,1-8.624-27.781,149.447,149.447,0,0,1,0-59.654A147.192,147.192,0,0,1,25.276,65.252,148.432,148.432,0,0,1,90.391,11.631a147.274,147.274,0,0,1,27.781-8.624,149.447,149.447,0,0,1,59.654,0,147.192,147.192,0,0,1,52.921,22.269,148.427,148.427,0,0,1,53.622,65.115,147.278,147.278,0,0,1,8.624,27.781,149.449,149.449,0,0,1,0,59.654,147.194,147.194,0,0,1-22.269,52.921,148.825,148.825,0,0,1-39.976,39.976c-1.477,1-3,1.985-4.514,2.931v-54.62H149.516v-75.58H220.09A72.233,72.233,0,1,0,148,220.232c.332,0,.672,0,1.01-.007V296c-.34,0-.68,0-1.01,0A149.149,149.149,0,0,1,118.172,292.993Z" transform="translate(-0.479 0.29)" fill="#1cbcd8"/>
      <g id="Mask_Group_22" data-name="Mask Group 22" transform="translate(149.715 143.477)" clip-path="url(#clip-path)">
        <path id="Union_9" data-name="Union 9" d="M117.9,292.314A146.852,146.852,0,0,1,65.1,270.1a148.095,148.095,0,0,1-53.5-64.965A146.869,146.869,0,0,1,3,177.414,149.1,149.1,0,0,1,3,117.9,146.85,146.85,0,0,1,25.218,65.1,148.088,148.088,0,0,1,90.182,11.6,146.932,146.932,0,0,1,117.9,3a149.1,149.1,0,0,1,59.516,0,146.85,146.85,0,0,1,52.8,22.218,148.083,148.083,0,0,1,53.5,64.964,146.934,146.934,0,0,1,8.6,27.717,149.1,149.1,0,0,1,0,59.516,146.852,146.852,0,0,1-22.218,52.8A148.476,148.476,0,0,1,230.212,270.1c-1.474,1-2.99,1.98-4.5,2.925V218.527h-76.54v-75.4H219.58a72.065,72.065,0,1,0-71.923,76.6c.331,0,.67,0,1.008-.007v75.6c-.339,0-.679,0-1.008,0A148.8,148.8,0,0,1,117.9,292.314Z" transform="translate(-150.68 -143.581)" fill="#239db2"/>
      </g>
      <path id="Subtraction_30" data-name="Subtraction 30" d="M144.761,181H65.006a72.777,72.777,0,0,0,6.966-31.253c0-40.024-32.287-72.809-71.972-73.084V0A148.419,148.419,0,0,1,29.422,3.041,146.9,146.9,0,0,1,57.3,11.767,148.138,148.138,0,0,1,82.524,25.573,149.909,149.909,0,0,1,104.5,43.859a150.579,150.579,0,0,1,18.134,22.163A150.157,150.157,0,0,1,136.33,91.458a149.951,149.951,0,0,1,8.653,28.11A152.089,152.089,0,0,1,148,149.747a152.1,152.1,0,0,1-3.017,30.179c-.071.348-.145.71-.222,1.073Z" transform="translate(148.521 143.29)" fill="#c0db00"/>
    </g>
    <g id="Group_42" data-name="Group 42" transform="translate(6114 -3850)">
      <text id="We_Build_Quality" data-name="We Build Quality" transform="translate(-5505 4096)" fill="#7e7e7e" font-size="51" font-family="FONTSPRINGDEMO-NeueAlteGroteskRegular, FONTSPRING DEMO - Neue Alte Grotesk" letter-spacing="0.06em"><tspan x="-249.125" y="0">WE BUILD QUALITY</tspan></text>
      <g id="Group_40" data-name="Group 40" transform="translate(-5765 3894)">
        <text id="Homes" transform="translate(315 133)" fill="#1cbcd8" font-size="128" font-family="FONTSPRINGDEMO-NeueAlteGroteskBold, FONTSPRING DEMO - Neue Alte Grotesk" font-weight="700"><tspan x="-209.757" y="0">Homes</tspan></text>
        <text id="Q_" data-name="Q " transform="translate(67 131)" fill="#1cbcd8" font-size="128" font-family="FONTSPRINGDEMO-NeueAlteGroteskBold, FONTSPRING DEMO - Neue Alte Grotesk" font-weight="700"><tspan x="-66.949" y="0">Q </tspan></text>
      </g>
    </g>
  </g>
</svg>
