<svg xmlns="http://www.w3.org/2000/svg" xmlns:xlink="http://www.w3.org/1999/xlink" width="907" height="324" viewBox="0 0 907 324">
  <defs>
    <clipPath id="clip-path">
      <path id="Path_52" data-name="Path 52" d="M-4534.815,447.55s42.85-1.845,74.055,10.913c21.716,7.818,51.059,29.07,63.214,47.125,0-.282-13.03,27.8-13.03,27.8s-34-50.8-60.259-63.784S-4534.815,447.55-4534.815,447.55Z" transform="translate(4534.815 -447.457)" fill="#239db2"/>
    </clipPath>
    <clipPath id="clip-logo_2_1">
      <rect width="907" height="324"/>
    </clipPath>
  </defs>
  <g id="logo_2_1" data-name="logo 2 – 1" clip-path="url(#clip-logo_2_1)">
    <g id="Group_36" data-name="Group 36" transform="translate(0.479 -0.29)">
      <path id="Union_8" data-name="Union 8" d="M118.172,292.993a147.193,147.193,0,0,1-52.921-22.269,148.439,148.439,0,0,1-53.621-65.116,147.232,147.232,0,0,1-8.624-27.781,149.447,149.447,0,0,1,0-59.654A147.192,147.192,0,0,1,25.276,65.252,148.432,148.432,0,0,1,90.391,11.631a147.274,147.274,0,0,1,27.781-8.624,149.447,149.447,0,0,1,59.654,0,147.192,147.192,0,0,1,52.921,22.269,148.427,148.427,0,0,1,53.622,65.115,147.278,147.278,0,0,1,8.624,27.781,149.449,149.449,0,0,1,0,59.654,147.194,147.194,0,0,1-22.269,52.921,148.825,148.825,0,0,1-39.976,39.976c-1.477,1-3,1.985-4.514,2.931v-54.62H149.516v-75.58H220.09A72.233,72.233,0,1,0,148,220.232c.332,0,.672,0,1.01-.007V296c-.34,0-.68,0-1.01,0A149.149,149.149,0,0,1,118.172,292.993Z" transform="translate(-0.479 0.29)" fill="#1cbcd8"/>
      <g id="Mask_Group_22" data-name="Mask Group 22" transform="translate(149.715 143.477)" clip-path="url(#clip-path)">
        <path id="Union_9" data-name="Union 9" d="M117.9,292.314A146.852,146.852,0,0,1,65.1,270.1a148.095,148.095,0,0,1-53.5-64.965A146.869,146.869,0,0,1,3,177.414,149.1,149.1,0,0,1,3,117.9,146.85,146.85,0,0,1,25.218,65.1,148.088,148.088,0,0,1,90.182,11.6,146.932,146.932,0,0,1,117.9,3a149.1,149.1,0,0,1,59.516,0,146.85,146.85,0,0,1,52.8,22.218,148.083,148.083,0,0,1,53.5,64.964,146.934,146.934,0,0,1,8.6,27.717,149.1,149.1,0,0,1,0,59.516,146.852,146.852,0,0,1-22.218,52.8A148.476,148.476,0,0,1,230.212,270.1c-1.474,1-2.99,1.98-4.5,2.925V218.527h-76.54v-75.4H219.58a72.065,72.065,0,1,0-71.923,76.6c.331,0,.67,0,1.008-.007v75.6c-.339,0-.679,0-1.008,0A148.8,148.8,0,0,1,117.9,292.314Z" transform="translate(-150.68 -143.581)" fill="#239db2"/>
      </g>
      <path id="Subtraction_30" data-name="Subtraction 30" d="M144.761,181H65.006a72.777,72.777,0,0,0,6.966-31.253c0-40.024-32.287-72.809-71.972-73.084V0A148.419,148.419,0,0,1,29.422,3.041,146.9,146.9,0,0,1,57.3,11.767,148.138,148.138,0,0,1,82.524,25.573,149.909,149.909,0,0,1,104.5,43.859a150.579,150.579,0,0,1,18.134,22.163A150.157,150.157,0,0,1,136.33,91.458a149.951,149.951,0,0,1,8.653,28.11A152.089,152.089,0,0,1,148,149.747a152.1,152.1,0,0,1-3.017,30.179c-.071.348-.145.71-.222,1.073Z" transform="translate(148.521 143.29)" fill="#c0db00"/>
    </g>
    <g id="Group_19611" data-name="Group 19611" transform="translate(0 -8.971)">
      <g id="Group_19610" data-name="Group 19610" transform="translate(-7.396)">
        <path id="Path_9285" data-name="Path 9285" d="M20.431,117.307l-9.6-36.2h4.914l5.506,23.727q.888,3.728,1.53,7.408,1.383-5.8,1.63-6.691L31.3,81.111h5.776L42.258,99.43a97.058,97.058,0,0,1,2.814,12.815q.692-3.431,1.8-7.876l5.68-23.259h4.814l-9.926,36.2H42.826L35.2,89.728q-.964-3.458-1.136-4.246Q33.491,87.976,33,89.728L25.32,117.307Z" transform="translate(362.568 128.224)" fill="#606060"/>
        <path id="Path_9286" data-name="Path 9286" d="M47.233,117.307v-36.2H73.4v4.271H52.023V96.468H72.047v4.247H52.023v12.32h22.22v4.271Z" transform="translate(380.306 128.224)" fill="#606060"/>
        <path id="Path_9287" data-name="Path 9287" d="M83.237,117.307v-36.2h13.58a16.817,16.817,0,0,1,6.654,1.1,8.572,8.572,0,0,1,3.926,3.385,8.917,8.917,0,0,1,1.42,4.777,8.214,8.214,0,0,1-1.26,4.369,9,9,0,0,1-3.8,3.309,9.449,9.449,0,0,1,5.049,3.284,8.793,8.793,0,0,1,1.765,5.48,10.553,10.553,0,0,1-1.074,4.728,9.149,9.149,0,0,1-2.655,3.372,11.1,11.1,0,0,1-3.962,1.791,24.2,24.2,0,0,1-5.839.6Zm4.79-20.986h7.827a17.481,17.481,0,0,0,4.567-.419,5.084,5.084,0,0,0,2.753-1.8,5.2,5.2,0,0,0,.927-3.16,5.819,5.819,0,0,0-.864-3.172,4.373,4.373,0,0,0-2.47-1.877,20.6,20.6,0,0,0-5.506-.507H88.027Zm0,16.715H97.04a20.842,20.842,0,0,0,3.258-.173,7.843,7.843,0,0,0,2.765-.988,5.242,5.242,0,0,0,1.828-2.014,6.294,6.294,0,0,0,.715-3.049,6.017,6.017,0,0,0-1.037-3.519,5.474,5.474,0,0,0-2.876-2.1,17.846,17.846,0,0,0-5.3-.605h-8.37Z" transform="translate(397.848 128.224)" fill="#606060"/>
        <path id="Path_9288" data-name="Path 9288" d="M131.816,81.112h4.79v20.913a24.764,24.764,0,0,1-1.234,8.666,10.585,10.585,0,0,1-4.457,5.222,15.782,15.782,0,0,1-8.456,2.012,17.378,17.378,0,0,1-8.321-1.753,10,10,0,0,1-4.616-5.074,24.156,24.156,0,0,1-1.383-9.072V81.112h4.79V102a20.37,20.37,0,0,0,.876,6.951,6.652,6.652,0,0,0,3.013,3.443,10.449,10.449,0,0,0,5.222,1.211q5.283,0,7.53-2.4T131.816,102Z" transform="translate(409.98 128.224)" fill="#606060"/>
        <rect id="Rectangle_7471" data-name="Rectangle 7471" width="4.79" height="36.196" transform="translate(558.409 209.336)" fill="#606060"/>
        <path id="Path_9289" data-name="Path 9289" d="M146.035,117.307v-36.2h4.79v31.924h17.826v4.271Z" transform="translate(428.444 128.224)" fill="#606060"/>
        <path id="Path_9290" data-name="Path 9290" d="M167.117,117.307v-36.2h12.469a30.174,30.174,0,0,1,6.444.519,12.256,12.256,0,0,1,5.308,2.592,14.742,14.742,0,0,1,4.285,6.184,24.3,24.3,0,0,1,1.419,8.605,25.255,25.255,0,0,1-.962,7.308,17.717,17.717,0,0,1-2.469,5.271,13.12,13.12,0,0,1-3.3,3.285,13.435,13.435,0,0,1-4.32,1.814,24.72,24.72,0,0,1-5.814.617Zm4.79-4.271h7.728a18.746,18.746,0,0,0,5.617-.666,8.041,8.041,0,0,0,3.247-1.877,11.411,11.411,0,0,0,2.655-4.581,22.393,22.393,0,0,0,.95-6.974q0-5.68-1.863-8.73a9.387,9.387,0,0,0-4.532-4.085,18.725,18.725,0,0,0-6.2-.741h-7.6Z" transform="translate(438.715 128.224)" fill="#606060"/>
        <path id="Path_9291" data-name="Path 9291" d="M233.195,113.641A29.343,29.343,0,0,0,239.343,117l-1.408,3.333a28.23,28.23,0,0,1-7.777-4.444,17.933,17.933,0,0,1-8.889,2.247,17.158,17.158,0,0,1-8.913-2.371,15.829,15.829,0,0,1-6.16-6.667,21.221,21.221,0,0,1-2.161-9.677,21.7,21.7,0,0,1,2.173-9.753,15.3,15.3,0,0,1,6.185-6.691,17.746,17.746,0,0,1,8.975-2.3,17.407,17.407,0,0,1,9.036,2.383,15.56,15.56,0,0,1,6.135,6.666,21.588,21.588,0,0,1,2.112,9.667,22.481,22.481,0,0,1-1.358,8.037,16.874,16.874,0,0,1-4.1,6.209m-10.543-6.123a17.773,17.773,0,0,1,6.84,3.456q4.221-3.85,4.221-11.579a18.381,18.381,0,0,0-1.493-7.678,11.512,11.512,0,0,0-4.371-5.1A12.524,12.524,0,0,0,212.5,88.47q-3.531,3.665-3.531,10.95,0,7.061,3.492,10.839a11.624,11.624,0,0,0,8.926,3.778,12.261,12.261,0,0,0,4.839-.964,15.524,15.524,0,0,0-4.74-2.073Z" transform="translate(456.702 128.014)" fill="#606060"/>
        <path id="Path_9292" data-name="Path 9292" d="M257.411,81.112h4.79v20.913a24.8,24.8,0,0,1-1.234,8.666,10.585,10.585,0,0,1-4.457,5.222,15.786,15.786,0,0,1-8.456,2.012,17.374,17.374,0,0,1-8.321-1.753,10,10,0,0,1-4.616-5.074,24.156,24.156,0,0,1-1.383-9.072V81.112h4.79V102a20.37,20.37,0,0,0,.876,6.951,6.649,6.649,0,0,0,3.012,3.443,10.455,10.455,0,0,0,5.223,1.211q5.283,0,7.53-2.4T257.411,102Z" transform="translate(471.171 128.224)" fill="#606060"/>
        <path id="Path_9293" data-name="Path 9293" d="M257.605,117.307l13.9-36.2h5.161l14.814,36.2h-5.457L281.8,106.345H266.665l-3.975,10.962Zm10.443-14.863h12.271L276.542,92.42q-1.729-4.569-2.568-7.506a46.229,46.229,0,0,1-1.95,6.913Z" transform="translate(482.802 128.224)" fill="#606060"/>
        <path id="Path_9294" data-name="Path 9294" d="M284.862,117.307v-36.2h4.79v31.924h17.826v4.271Z" transform="translate(496.082 128.224)" fill="#606060"/>
        <rect id="Rectangle_7472" data-name="Rectangle 7472" width="4.79" height="36.196" transform="translate(813.112 209.336)" fill="#606060"/>
        <path id="Path_9295" data-name="Path 9295" d="M327.53,117.307V85.383H315.6V81.111h28.688v4.271H332.321v31.924Z" transform="translate(511.06 128.224)" fill="#606060"/>
        <path id="Path_9296" data-name="Path 9296" d="M351.665,117.307V101.974l-13.95-20.863h5.827l7.136,10.913q1.976,3.061,3.679,6.123,1.628-2.838,3.95-6.4l7.012-10.641h5.58l-14.444,20.863v15.333Z" transform="translate(521.832 128.224)" fill="#606060"/>
      </g>
      <g id="Group_19609" data-name="Group 19609">
        <path id="Path_9297" data-name="Path 9297" d="M129.391,54.453H97.619V88.972H77.194V5.124H97.619V37.97h31.772V5.124h20.425V88.972H129.391Z" transform="translate(390.572 96.133)" fill="#1cbcd8"/>
        <path id="Path_9298" data-name="Path 9298" d="M170.141,85.109c-19.589,0-34.4-13.14-34.4-34.28s15.169-34.28,34.639-34.28c19.589,0,34.639,13.139,34.639,34.28s-15.289,34.28-34.878,34.28m0-17.678c7.286,0,14.094-5.375,14.094-16.6,0-11.347-6.689-16.6-13.855-16.6-7.405,0-13.855,5.257-13.855,16.6,0,11.228,6.211,16.6,13.617,16.6" transform="translate(415.275 100.954)" fill="#1cbcd8"/>
        <path id="Path_9299" data-name="Path 9299" d="M283.956,47.89c0-8.719-5.015-13.5-12.779-13.5S258.4,39.17,258.4,47.89V84.081H238.09V47.89c0-8.719-5.015-13.5-12.779-13.5s-12.782,4.776-12.782,13.5V84.081H192.1V17.432h20.425v8.361c3.942-5.374,10.75-9.078,19.469-9.078,10.035,0,18.157,4.421,22.694,12.422a26.808,26.808,0,0,1,22.455-12.422c16.483,0,27.114,10.512,27.114,28.428V84.081H283.956Z" transform="translate(439.058 101.024)" fill="#1cbcd8"/>
        <path id="Path_9300" data-name="Path 9300" d="M311.887,85.109c-19.589,0-33.683-13.14-33.683-34.28s13.855-34.28,33.683-34.28c19.469,0,33.205,12.9,33.205,33.205a51.577,51.577,0,0,1-.358,5.971H298.509c.717,8.719,6.092,12.782,12.66,12.782,5.735,0,8.96-2.867,10.632-6.45H343.54c-3.226,13.019-15.05,23.053-31.653,23.053m-13.258-40.73H324.19c0-7.286-5.735-11.467-12.542-11.467-6.689,0-11.825,4.061-13.019,11.467" transform="translate(475.387 100.954)" fill="#1cbcd8"/>
        <path id="Path_9301" data-name="Path 9301" d="M360.981,85.108c-17.8,0-29.741-9.914-30.7-22.814h20.185c.478,4.658,4.66,7.764,10.274,7.764,5.254,0,8-2.389,8-5.375,0-10.75-36.311-2.986-36.311-27.472,0-11.347,9.675-20.664,27.114-20.664,17.2,0,26.755,9.555,28.068,22.694H368.745c-.6-4.537-4.061-7.525-9.8-7.525-4.776,0-7.4,1.911-7.4,5.136,0,10.63,36.071,3.106,36.429,27.95,0,11.586-10.271,20.305-26.993,20.305" transform="translate(497.362 100.953)" fill="#1cbcd8"/>
        <path id="Path_9302" data-name="Path 9302" d="M69.516,77.28l18.394,22.1H63.186L52.436,84.924a47.379,47.379,0,0,1-9.317.956C19.35,85.88,0,68.083,0,42.879S19.35,0,43.119,0C67.008,0,86,17.678,86,42.879c0,14.692-6.45,26.757-16.483,34.4m-26.4-10.033c13.378,0,22.1-9.676,22.1-24.368,0-14.929-8.719-24.365-22.1-24.365C29.5,18.514,20.9,27.95,20.9,42.879c0,14.692,8.6,24.368,22.216,24.368" transform="translate(358 93.971)" fill="#1cbcd8"/>
      </g>
    </g>
  </g>
</svg>
