<svg xmlns="http://www.w3.org/2000/svg" xmlns:xlink="http://www.w3.org/1999/xlink" width="521" height="572" viewBox="0 0 521 572">
  <defs>
    <clipPath id="clip-path">
      <path id="Path_52" data-name="Path 52" d="M-4534.816,447.541s38.751-1.669,66.97,9.868c19.638,7.07,46.174,26.288,57.166,42.616,0-.255-11.783,25.137-11.783,25.137s-30.75-45.937-54.494-57.681S-4534.816,447.541-4534.816,447.541Z" transform="translate(4534.816 -447.457)" fill="#239db2"/>
    </clipPath>
    <clipPath id="clip-logo-side_1">
      <rect width="521" height="572"/>
    </clipPath>
  </defs>
  <g id="logo-side_1" data-name="logo-side – 1" clip-path="url(#clip-logo-side_1)">
    <g id="Group_44" data-name="Group 44">
      <path id="Rectangle_47" data-name="Rectangle 47" d="M0,0H521a0,0,0,0,1,0,0V542a30,30,0,0,1-30,30H30A30,30,0,0,1,0,542V0A0,0,0,0,1,0,0Z" fill="#fff"/>
      <g id="Group_43" data-name="Group 43" transform="translate(5853 -3510)">
        <g id="Group_27" data-name="Group 27" transform="translate(-5726.521 3608.71)">
          <path id="Union_8" data-name="Union 8" d="M106.595,264.288A132.771,132.771,0,0,1,58.859,244.2a133.9,133.9,0,0,1-48.367-58.736A132.808,132.808,0,0,1,2.712,160.4a134.8,134.8,0,0,1,0-53.81A132.771,132.771,0,0,1,22.8,58.859,133.89,133.89,0,0,1,81.535,10.491a132.845,132.845,0,0,1,25.059-7.779,134.8,134.8,0,0,1,53.81,0A132.771,132.771,0,0,1,208.141,22.8a133.886,133.886,0,0,1,48.368,58.736,132.848,132.848,0,0,1,7.779,25.059,134.806,134.806,0,0,1,0,53.81A132.771,132.771,0,0,1,244.2,208.141a134.243,134.243,0,0,1-36.06,36.06c-1.333.9-2.7,1.79-4.072,2.644V197.576h-69.2V129.4h63.66A65.156,65.156,0,1,0,133.5,198.655c.3,0,.606,0,.911-.007V267c-.307,0-.613,0-.911,0A134.536,134.536,0,0,1,106.595,264.288Z" transform="translate(-0.479 0.29)" fill="#1cbcd8"/>
          <g id="Mask_Group_22" data-name="Mask Group 22" transform="translate(135.344 129.777)" clip-path="url(#clip-path)">
            <path id="Union_9" data-name="Union 9" d="M106.618,264.345a132.8,132.8,0,0,1-47.746-20.092A133.925,133.925,0,0,1,10.493,185.5a132.817,132.817,0,0,1-7.781-25.065,134.834,134.834,0,0,1,0-53.822A132.8,132.8,0,0,1,22.8,58.871,133.919,133.919,0,0,1,81.553,10.493a132.874,132.874,0,0,1,25.065-7.781,134.834,134.834,0,0,1,53.822,0A132.8,132.8,0,0,1,208.186,22.8a133.914,133.914,0,0,1,48.379,58.748,132.874,132.874,0,0,1,7.781,25.065,134.836,134.836,0,0,1,0,53.822,132.8,132.8,0,0,1-20.092,47.746,134.271,134.271,0,0,1-36.068,36.068c-1.333.9-2.7,1.791-4.073,2.645v-49.28H134.9v-68.19H198.57a65.17,65.17,0,1,0-65.041,69.27c.3,0,.606,0,.911-.007v68.363c-.307,0-.614,0-.911,0A134.567,134.567,0,0,1,106.618,264.345Z" transform="translate(-136.263 -129.844)" fill="#239db2"/>
          </g>
          <path id="Subtraction_30" data-name="Subtraction 30" d="M131.067,164H58.857a65.982,65.982,0,0,0,6.307-28.318c0-36.265-29.233-65.971-65.164-66.22V0A134.283,134.283,0,0,1,26.639,2.756a132.931,132.931,0,0,1,25.239,7.906,134.094,134.094,0,0,1,22.84,12.51,135.751,135.751,0,0,1,19.9,16.568,136.416,136.416,0,0,1,16.419,20.081,136.086,136.086,0,0,1,12.4,23.047,135.943,135.943,0,0,1,7.835,25.47A137.9,137.9,0,0,1,134,135.682a137.917,137.917,0,0,1-2.732,27.345c-.064.316-.132.643-.2.972Z" transform="translate(134.521 129.29)" fill="#c0db00"/>
        </g>
        <g id="Group_41" data-name="Group 41">
          <text id="We_Build_Quality" data-name="We Build Quality" transform="translate(-5592 4027)" fill="#7e7e7e" font-size="34" font-family="FONTSPRINGDEMO-NeueAlteGroteskRegular, FONTSPRING DEMO - Neue Alte Grotesk" letter-spacing="0.06em"><tspan x="-166.083" y="0">WE BUILD QUALITY</tspan></text>
          <g id="Group_40" data-name="Group 40">
            <text id="Homes" transform="translate(-5558 3981)" fill="#1cbcd8" font-size="84" font-family="FONTSPRINGDEMO-NeueAlteGroteskBold, FONTSPRING DEMO - Neue Alte Grotesk" font-weight="700"><tspan x="-137.653" y="0">Homes</tspan></text>
            <text id="Q_" data-name="Q " transform="translate(-5721 3980)" fill="#1cbcd8" font-size="84" font-family="FONTSPRINGDEMO-NeueAlteGroteskBold, FONTSPRING DEMO - Neue Alte Grotesk" font-weight="700"><tspan x="-43.935" y="0">Q </tspan></text>
          </g>
        </g>
      </g>
    </g>
  </g>
</svg>
