<svg id="Triangle_logo_1_" data-name="Triangle logo (1)" xmlns="http://www.w3.org/2000/svg" width="207.884" height="73.064" viewBox="0 0 207.884 73.064">
  <path id="Path_1" data-name="Path 1" d="M42.313,148.217V129.763H33V125.19H55.528a2.079,2.079,0,0,1,2.079,2.079v2.494H48.26v18.454Z" transform="translate(-33 -90.185)" fill="#376d85"/>
  <path id="Path_2" data-name="Path 2" d="M127.692,148.217l-6.153-7.935c-.537.034-1.108.034-1.649.034h-3.8v7.9H110.14V125.19h11.194c4.5,0,7.763.2,9.983,1.85,1.679,1.245,2.456,3.027,2.456,5.582,0,2.722-.841,4.5-2.654,5.749a7.779,7.779,0,0,1-3.092,1.245l6.857,8.6h-7.192ZM121.376,129.6H116.1v6.522h5.346c4.47,0,6.286-.571,6.286-3.328C127.726,129.8,125.309,129.6,121.376,129.6Z" transform="translate(-80.77 -90.185)" fill="#376d85"/>
  <path id="Path_3" data-name="Path 3" d="M190.58,148.217V125.19h4.295a1.651,1.651,0,0,1,1.652,1.652v21.371H190.58Z" transform="translate(-130.583 -90.185)" fill="#376d85"/>
  <path id="Path_4" data-name="Path 4" d="M459.91,148.217V125.19h4.131a1.816,1.816,0,0,1,1.816,1.816v16.4h14.655v4.8h-20.6Z" transform="translate(-297.369 -90.185)" fill="#376d85"/>
  <path id="Path_5" data-name="Path 5" d="M526.56,148.217V125.19h17.468a1.926,1.926,0,0,1,1.927,1.927v2.646H532.511v4.47H544.95v4.436H532.511v4.942h14.015v4.607Z" transform="translate(-338.642 -90.185)" fill="#376d85"/>
  <path id="Path_6" data-name="Path 6" d="M387.645,147.924c-3.293,0-6.488-.472-8.841-2.387-2.757-2.284-3.564-5.814-3.564-9.614,0-3.259.94-7.295,4.538-9.713,2.825-1.881,6.454-2.25,10.421-2.25,3.057,0,6.118.168,9.545.4v4.706c-2.856-.2-6.522-.369-9.176-.369-6.488,0-9.244,1.949-9.244,7.36,0,5.007,1.881,7.329,7.025,7.329a48.7,48.7,0,0,0,6.823-.537v-4h-6.857v-4.3h10.463a1.94,1.94,0,0,1,1.942,1.942v9.926A66.482,66.482,0,0,1,387.645,147.924Z" transform="translate(-244.936 -89.423)" fill="#376d85"/>
  <path id="Path_7" data-name="Path 7" d="M312.848,148.217l-13.444-15.7h-.1v15.7H293.86V125.19h6.926l12.976,15.664h.133V125.19h3.625a1.782,1.782,0,0,1,1.782,1.782v21.241h-6.454Z" transform="translate(-194.54 -90.185)" fill="#376d85"/>
  <path id="Path_8" data-name="Path 8" d="M217.33,137.248h5.791a3.544,3.544,0,0,0,3.061-1.763L238.617,114l-3.826-6.884Z" transform="translate(-147.148 -78.995)" fill="#bc314b"/>
  <g id="Group_5" data-name="Group 5" transform="translate(23.286 64.117)">
    <path id="Path_9" data-name="Path 9" d="M98.032,210.674h-.975v-7.725h-2.9v-.9h6.766v.9h-2.9v7.725Z" transform="translate(-94.16 -201.898)" fill="#231f20"/>
    <path id="Path_10" data-name="Path 10" d="M125.35,210.668l-2.5-3.351h-2.463v3.351h-.975V202.04h3.708a4.1,4.1,0,0,1,1.287.187,2.9,2.9,0,0,1,.979.525,2.345,2.345,0,0,1,.628.815,2.445,2.445,0,0,1,.221,1.055,2.562,2.562,0,0,1-.171.967,2.21,2.21,0,0,1-.487.739,2.738,2.738,0,0,1-.746.525,3.453,3.453,0,0,1-.937.3l2.65,3.522H125.35Zm-.666-7.276a2.6,2.6,0,0,0-1.63-.453h-2.669v3.51h2.658a3.169,3.169,0,0,0,.891-.122,2.112,2.112,0,0,0,.7-.354,1.627,1.627,0,0,0,.464-.563,1.675,1.675,0,0,0,.168-.754A1.522,1.522,0,0,0,124.683,203.392Z" transform="translate(-109.796 -201.891)" fill="#231f20"/>
    <path id="Path_11" data-name="Path 11" d="M152.3,210.568h-1.047l-1.009-2.281h-4.695l-1.024,2.281h-1l3.929-8.688h.914Zm-4.4-7.542-1.972,4.4h3.929Z" transform="translate(-124.733 -201.792)" fill="#231f20"/>
    <path id="Path_12" data-name="Path 12" d="M174.885,202.04v8.628h-.975V202.04Z" transform="translate(-143.546 -201.891)" fill="#231f20"/>
    <path id="Path_13" data-name="Path 13" d="M192.107,202.04h.948v8.628h-.777l-5.57-7.074v7.074h-.948V202.04h.914l5.433,6.914Z" transform="translate(-150.884 -201.891)" fill="#231f20"/>
    <path id="Path_14" data-name="Path 14" d="M220.217,202.927h-5.262v2.947h4.706v.887h-4.706v3.019h5.323v.887h-6.3V202.04h6.237v.887Z" transform="translate(-168.36 -201.891)" fill="#231f20"/>
    <path id="Path_15" data-name="Path 15" d="M244.26,210.668l-2.5-3.351h-2.463v3.351h-.975V202.04h3.708a4.1,4.1,0,0,1,1.287.187,2.838,2.838,0,0,1,.978.525,2.346,2.346,0,0,1,.628.815,2.444,2.444,0,0,1,.221,1.055,2.562,2.562,0,0,1-.171.967,2.21,2.21,0,0,1-.487.739,2.738,2.738,0,0,1-.746.525,3.453,3.453,0,0,1-.937.3l2.65,3.522H244.26Zm-.666-7.276a2.6,2.6,0,0,0-1.63-.453h-2.669v3.51h2.658a3.169,3.169,0,0,0,.891-.122,2.112,2.112,0,0,0,.7-.354,1.627,1.627,0,0,0,.465-.563,1.675,1.675,0,0,0,.168-.754A1.522,1.522,0,0,0,243.593,203.392Z" transform="translate(-183.433 -201.891)" fill="#231f20"/>
    <path id="Path_16" data-name="Path 16" d="M264.319,204.545a1.09,1.09,0,0,0,.358.449,2.644,2.644,0,0,0,.716.369,8.685,8.685,0,0,0,1.169.316,5.082,5.082,0,0,1,2.124.887,1.925,1.925,0,0,1,.685,1.569,2.283,2.283,0,0,1-.221,1.013,2.238,2.238,0,0,1-.605.777,2.793,2.793,0,0,1-.925.495,3.921,3.921,0,0,1-1.184.171,5.132,5.132,0,0,1-1.892-.335,5.345,5.345,0,0,1-1.633-1.032l.605-.716a5.094,5.094,0,0,0,1.367.918,3.931,3.931,0,0,0,1.592.3,2.217,2.217,0,0,0,1.4-.407,1.29,1.29,0,0,0,.525-1.074,1.452,1.452,0,0,0-.1-.548,1.118,1.118,0,0,0-.346-.438,2.378,2.378,0,0,0-.685-.358,8.946,8.946,0,0,0-1.119-.308,8.743,8.743,0,0,1-1.291-.369,3.187,3.187,0,0,1-.906-.506,1.835,1.835,0,0,1-.529-.689,2.338,2.338,0,0,1-.171-.937,2.141,2.141,0,0,1,.209-.952,2.194,2.194,0,0,1,.59-.746,2.969,2.969,0,0,1,.9-.495,3.377,3.377,0,0,1,1.135-.179,4.755,4.755,0,0,1,1.656.263,5.177,5.177,0,0,1,1.374.784l-.567.75a4.264,4.264,0,0,0-1.215-.716,3.684,3.684,0,0,0-1.275-.221,2.476,2.476,0,0,0-.758.11,1.845,1.845,0,0,0-.579.3,1.262,1.262,0,0,0-.369.445,1.206,1.206,0,0,0-.129.556A1.506,1.506,0,0,0,264.319,204.545Z" transform="translate(-198.66 -201.693)" fill="#231f20"/>
    <path id="Path_17" data-name="Path 17" d="M305.241,210.6l-1.355-1.394a4.649,4.649,0,0,1-1.283.994,3.378,3.378,0,0,1-1.542.35,3.3,3.3,0,0,1-1.077-.171,2.57,2.57,0,0,1-.864-.491,2.235,2.235,0,0,1-.567-.769,2.366,2.366,0,0,1-.2-.994,2.182,2.182,0,0,1,.541-1.493,3.925,3.925,0,0,1,1.542-1.009,4.521,4.521,0,0,1-.655-.956,2.168,2.168,0,0,1-.209-.956,1.977,1.977,0,0,1,.168-.807,2.041,2.041,0,0,1,.461-.655,2.116,2.116,0,0,1,.716-.438,2.6,2.6,0,0,1,.937-.16,2.292,2.292,0,0,1,.838.152,2.052,2.052,0,0,1,.659.419,1.909,1.909,0,0,1,.438.624A2,2,0,0,1,303.4,205a3.934,3.934,0,0,1-1.492.868l1.972,2.01a9.674,9.674,0,0,0,.541-.9c.171-.32.335-.663.491-1.024l.8.369c-.19.411-.385.8-.586,1.157a8.689,8.689,0,0,1-.659,1.009l1.5,1.542Zm-4.264-4.375a2.8,2.8,0,0,0-1.256.815,1.65,1.65,0,0,0-.4,1.047,1.547,1.547,0,0,0,.5,1.169,1.706,1.706,0,0,0,.575.346,2.039,2.039,0,0,0,.727.122,2.309,2.309,0,0,0,1.154-.3,4.078,4.078,0,0,0,1.005-.819Zm1.713-3.43a1.2,1.2,0,0,0-.876-.339,1.269,1.269,0,0,0-.948.358,1.214,1.214,0,0,0-.358.9,1.611,1.611,0,0,0,.042.369,1.7,1.7,0,0,0,.141.358,2.689,2.689,0,0,0,.267.4c.11.145.247.3.411.476a3.438,3.438,0,0,0,1.245-.678,1.287,1.287,0,0,0,.419-.975A1.136,1.136,0,0,0,302.69,202.792Z" transform="translate(-220.607 -201.65)" fill="#231f20"/>
    <path id="Path_18" data-name="Path 18" d="M341.8,208.3h-.049l-3.141-4.607v6.975h-.948V202.04h.986l3.141,4.706,3.141-4.706h.986v8.628h-.975v-6.987Z" transform="translate(-244.95 -201.892)" fill="#231f20"/>
    <path id="Path_19" data-name="Path 19" d="M374.636,202.927h-5.262v2.947h4.706v.887h-4.706v3.019H374.7v.887h-6.3V202.04h6.237Z" transform="translate(-263.986 -201.891)" fill="#231f20"/>
    <path id="Path_20" data-name="Path 20" d="M399.087,202.04h.948v8.628h-.777l-5.57-7.074v7.074h-.948V202.04h.914l5.433,6.914Z" transform="translate(-279.059 -201.891)" fill="#231f20"/>
    <path id="Path_21" data-name="Path 21" d="M423.212,210.674h-.975v-7.725h-2.9v-.9h6.766v.9h-2.9v7.725Z" transform="translate(-295.531 -201.898)" fill="#231f20"/>
    <path id="Path_22" data-name="Path 22" d="M450.5,207.813a4.5,4.5,0,0,1-.9,1.424,4.207,4.207,0,0,1-1.394.979,4.668,4.668,0,0,1-3.594,0,4.281,4.281,0,0,1-1.386-.967,4.347,4.347,0,0,1-.895-1.416,4.662,4.662,0,0,1-.316-1.706,4.588,4.588,0,0,1,.32-1.706,4.5,4.5,0,0,1,.9-1.424,4.207,4.207,0,0,1,1.394-.979,4.668,4.668,0,0,1,3.594,0,4.281,4.281,0,0,1,1.386.967,4.347,4.347,0,0,1,.895,1.416,4.662,4.662,0,0,1,.316,1.706A4.588,4.588,0,0,1,450.5,207.813Zm-.944-3.073a3.407,3.407,0,0,0-.708-1.135,3.467,3.467,0,0,0-1.077-.765,3.224,3.224,0,0,0-1.363-.282,3.293,3.293,0,0,0-1.363.278,3.254,3.254,0,0,0-1.066.758,3.51,3.51,0,0,0-.7,1.127,3.8,3.8,0,0,0-.251,1.386,3.866,3.866,0,0,0,.251,1.394,3.4,3.4,0,0,0,.708,1.135,3.467,3.467,0,0,0,1.077.765,3.224,3.224,0,0,0,1.363.282,3.294,3.294,0,0,0,1.363-.278,3.254,3.254,0,0,0,1.066-.758,3.511,3.511,0,0,0,.7-1.127,3.968,3.968,0,0,0,0-2.779Z" transform="translate(-309.576 -201.656)" fill="#231f20"/>
    <path id="Path_23" data-name="Path 23" d="M479.139,210.668l-2.5-3.351h-2.463v3.351H473.2V202.04h3.708a4.1,4.1,0,0,1,1.287.187,2.838,2.838,0,0,1,.978.525,2.346,2.346,0,0,1,.628.815,2.444,2.444,0,0,1,.221,1.055,2.562,2.562,0,0,1-.171.967,2.211,2.211,0,0,1-.487.739,2.739,2.739,0,0,1-.746.525,3.454,3.454,0,0,1-.937.3l2.65,3.522h-1.192Zm-.666-7.276a2.6,2.6,0,0,0-1.63-.453h-2.669v3.51h2.658a3.169,3.169,0,0,0,.891-.122,2.226,2.226,0,0,0,.7-.354,1.611,1.611,0,0,0,.632-1.317A1.543,1.543,0,0,0,478.473,203.392Z" transform="translate(-328.884 -201.891)" fill="#231f20"/>
    <path id="Path_24" data-name="Path 24" d="M499.2,204.545a1.091,1.091,0,0,0,.358.449,2.54,2.54,0,0,0,.716.369,8.685,8.685,0,0,0,1.169.316,5.082,5.082,0,0,1,2.125.887,1.925,1.925,0,0,1,.685,1.569,2.283,2.283,0,0,1-.221,1.013,2.237,2.237,0,0,1-.605.777,2.793,2.793,0,0,1-.925.495,3.921,3.921,0,0,1-1.184.171,5.132,5.132,0,0,1-1.892-.335,5.344,5.344,0,0,1-1.633-1.032l.605-.716a5.1,5.1,0,0,0,1.367.918,3.93,3.93,0,0,0,1.591.3,2.218,2.218,0,0,0,1.4-.407,1.3,1.3,0,0,0,.525-1.074,1.452,1.452,0,0,0-.1-.548,1.119,1.119,0,0,0-.346-.438,2.378,2.378,0,0,0-.685-.358,8.949,8.949,0,0,0-1.119-.308,8.743,8.743,0,0,1-1.291-.369,3.266,3.266,0,0,1-.91-.506,1.835,1.835,0,0,1-.529-.689,2.337,2.337,0,0,1-.171-.937,2.14,2.14,0,0,1,.209-.952,2.194,2.194,0,0,1,.59-.746,2.969,2.969,0,0,1,.9-.495,3.492,3.492,0,0,1,1.135-.179,4.755,4.755,0,0,1,1.656.263,5.177,5.177,0,0,1,1.374.784l-.567.75a4.264,4.264,0,0,0-1.215-.716,3.683,3.683,0,0,0-1.275-.221,2.476,2.476,0,0,0-.758.11,1.843,1.843,0,0,0-.579.3,1.261,1.261,0,0,0-.369.445,1.218,1.218,0,0,0-.129.556A1.508,1.508,0,0,0,499.2,204.545Z" transform="translate(-344.112 -201.693)" fill="#231f20"/>
  </g>
  <g id="Group_6" data-name="Group 6" transform="translate(88.792)">
    <path id="Path_25" data-name="Path 25" d="M296.612,59.445l-1.222-2.1L285.308,39.962l-3.891-6.712-3.9,6.716L267.44,57.339l13.973-10.661L287.6,57.343l1.218,2.1h-22.6l0,.008,34.3,6.7Z" transform="translate(-266.21 -33.25)" fill="#bc314b"/>
  </g>
</svg>
