<svg xmlns="http://www.w3.org/2000/svg" width="501.709" height="481.757" viewBox="0 0 501.709 481.757">
  <g id="_010101ff" data-name="#010101ff" transform="translate(-5.04 -15.297)">
    <path id="Path_67" data-name="Path 67" d="M458.43,20.42a32.267,32.267,0,0,1,33.85-.64C506,27.49,510.52,46.71,503.43,60.4c-2.47,5.23-6.88,9.09-10.89,13.12q-47.73,47.73-95.47,95.46a3.964,3.964,0,0,1-5.63.47c-3.39-3.17-6.55-6.59-9.87-9.83-5.9,5.97-12.01,11.73-17.71,17.88,12.64,12.57,25.18,25.26,37.79,37.87a28.874,28.874,0,0,1,8.65,22.53,28.281,28.281,0,0,1-17.27,23.23c-34.86,14.7-69.8,29.2-104.63,43.96,67.56.08,135.12-.03,202.67.07,4.22-.44,5.53,6.11,1.71,7.6-3.19.78-6.52.29-9.76.39q-75.795-.03-151.59-.01.045,41.955,0,83.91c53.24.09,106.47-.06,159.7.07a3.991,3.991,0,0,1,3.61,5.65c-.7,1.9-2.89,2.43-4.7,2.32q-30.765-.06-61.52.01.03,41.94,0,83.9c5.04.22,10.17-.46,15.15.33,3.83,1.4,2.67,7.96-1.53,7.63q-209.6.165-419.2.05c-1.8.12-3.88-.38-4.71-2.17a3.992,3.992,0,0,1,3.66-5.81c6.7-.11,13.41.02,20.11-.03V405.1c-11.33-.17-22.67.12-33.99-.14-4.45-.77-3.68-8.09.85-7.84,41.76-.13,83.53,0,125.29-.05-.05-27.99.11-55.98-.09-83.96-37.68.08-75.37-.02-113.06.05-1.89-.1-4.26.23-5.53-1.53-2.25-2.48.06-6.99,3.43-6.49q83.955-.09,167.91-.04,36.405-86.7,72.86-173.38c3.78-11.89,15.57-21.15,28.3-20.19a29.216,29.216,0,0,1,18.23,8.3c12.81,12.8,25.57,25.66,38.4,38.44q8.85-8.94,17.78-17.81c-3.18-3.36-6.62-6.47-9.73-9.89a3.814,3.814,0,0,1,.31-5.55q48.975-49.05,98.03-98.04a46.374,46.374,0,0,1,7.44-6.56m-3.76,14.24Q408.035,81.34,361.35,128c10.86,10.93,21.78,21.79,32.65,32.7q48.72-48.6,97.33-97.31a25.053,25.053,0,0,0,7.91-15.45c1.31-14.57-13.76-28.25-28.16-24.63-6.79,1.43-11.78,6.55-16.41,11.35M272.31,125.45c-2.62,2.67-3.93,6.22-5.34,9.6q-41.4,98.52-82.8,197.06c-1.73,2.53.03,5.69,2.78,6.41a53.483,53.483,0,0,0,8.43-3.15q97.9-41.16,195.87-82.2c9.42-3.9,13.68-16,9.75-25.18-1.29-3.14-3.66-5.63-6.03-7.97-12.31-12.3-24.55-24.66-36.86-36.96-10.91,10.82-21.69,21.78-32.64,32.55-6.12,5.77-17.66,3.86-20.98-4.03-2.77-5.03-1.52-11.58,2.44-15.61,10.62-10.7,21.32-21.33,31.96-32.02q-19.65-19.755-39.38-39.44c-7.29-7.28-20.31-6.48-27.2.94m40.79,75.66c-1,1.07-2.19,2.25-2.12,3.84-.65,4.71,6.15,8.4,9.41,4.45q27.78-27.705,55.49-55.47c-2.61-2.61-5.23-5.21-7.83-7.83q-27.435,27.555-54.95,55.01M142.17,313.13c.04,27.98-.06,55.96.04,83.94q90.6,0,181.19-.02c.03-27.97.09-55.95-.04-83.92-17.12-.01-34.24.05-51.36-.03-4.85-.09-8.98,2.92-13.43,4.44q-32.835,13.785-65.67,27.58a12.192,12.192,0,0,1-10.05.05c-6.01-2.16-8.75-9.9-6.32-15.6q3.405-8.25,6.92-16.44-20.64.015-41.28,0M50,405.08V489H231.21q.06-41.97.01-83.92-90.615-.06-181.22,0m189.23.01q.03,41.94-.01,83.9c60.45-.03,120.9.1,181.34-.06-.14-27.95.01-55.9-.07-83.85Q329.86,405.035,239.23,405.09Z" fill="#1cbcd8"/>
    <path id="Path_68" data-name="Path 68" d="M463.28,64.25c2.52-1.55,6.19.8,5.81,3.72.02,1.92-1.6,3.13-2.77,4.4-7.26,7.1-14.3,14.42-21.6,21.47-2.28,2.24-6.58.38-6.61-2.79-.22-2.17,1.73-3.54,3.02-4.96C448.6,78.9,455.63,71.23,463.28,64.25Z" fill="#1cbcd8"/>
    <path id="Path_69" data-name="Path 69" d="M425.33,102.14c2.95-2.21,7.34,1.44,5.86,4.76a21.874,21.874,0,0,1-5.51,5.84c-2.91,2.04-7.15-1.43-5.82-4.72A22.492,22.492,0,0,1,425.33,102.14Z" fill="#1cbcd8"/>
    <path id="Path_70" data-name="Path 70" d="M359.36,332.47c3.33-1.35,7.16-.46,10.69-.7,9.65.17,19.31-.24,28.96.16,4.11.54,4.07,7.36-.08,7.76-12.33.26-24.68.06-37.01.1C357.95,340.4,355.94,334.48,359.36,332.47Z" fill="#1cbcd8"/>
    <path id="Path_71" data-name="Path 71" d="M419.4,332.32c2.37-.94,5.06-.41,7.57-.59,2.47.13,5.78-.59,7.29,1.97,1.67,2.43-.32,6.21-3.31,6.05a92.11,92.11,0,0,1-10.77-.11C416.95,338.8,416.38,333.83,419.4,332.32Z" fill="#1cbcd8"/>
    <path id="Path_72" data-name="Path 72" d="M64.43,428.46c2.15-2.25,6.54-.63,6.6,2.5.29,12.02-.03,24.05.15,36.08-.11,2.13.35,4.93-1.78,6.27-2.45,1.89-6.44-.13-6.24-3.25-.13-12.03.03-24.06-.07-36.1C63.19,432.09,62.8,429.81,64.43,428.46Z" fill="#1cbcd8"/>
    <path id="Path_73" data-name="Path 73" d="M462.34,489.65c6.02-1.44,12.5-.32,18.7-.63,4.45-.66,6.13,6.33,1.85,7.72-6.29.53-12.66.25-18.97.16C460.39,496.69,459.31,491.37,462.34,489.65Z" fill="#1cbcd8"/>
  </g>
</svg>
