<svg xmlns="http://www.w3.org/2000/svg" width="469.33" height="466.685" viewBox="0 0 469.33 466.685">
  <g id="_010101ff" data-name="#010101ff" transform="translate(-21.448 -22.646)">
    <path id="Path_94" data-name="Path 94" d="M404.68,26.96a3.936,3.936,0,0,1,4.28-4.29,81.128,81.128,0,0,1,44.62,13.78,83.228,83.228,0,0,1,33.35,44.68c3.26,10.59,4.04,21.77,3.81,32.79q.015,103.545.01,207.1c.16,7.39-.88,14.72-1.94,22.02a83.035,83.035,0,0,1-25.32,42.53,79.748,79.748,0,0,1-53.47,20.36q-192.045-.03-384.08-.03c-2.79.34-4.85-2.36-4.44-4.98q.015-149.46-.01-298.91c0-1.72.04-3.95,1.79-4.88,2.61-1.75,5.86-.45,8.76-.64q186.285,1.47,372.58,2.98c.06-24.17-.07-48.34.06-72.51m7.97,3.84q.03,115.17,0,230.32c30.67,1.73,58.01,23.44,69.59,51.44q-.03-103.275.01-206.55c1.07-24.11-11.02-48.15-30.75-61.97.06,25.31,0,50.62.03,75.93a46.748,46.748,0,0,1-.24,7.39,4.072,4.072,0,0,1-6.25,1.68c-1.91-1.42-1.45-4.01-1.56-6.08.16-27.91-.19-55.83.18-83.73a75.862,75.862,0,0,0-31.01-8.43M29.48,104.71q.165,146.61.06,293.2,188.7.105,377.41.04c9.63.1,19.37-.97,28.47-4.28a70.6,70.6,0,0,0,38.76-33.59c3.33-6.84,6.85-14.19,6.17-22.01a76.292,76.292,0,0,0-24.27-50.2,70.277,70.277,0,0,0-45.06-18.75c-1.89-.23-4.24.21-5.57-1.49-1.58-2.24-.68-5.12-.85-7.64.08-37.21-.01-74.42.05-111.62-10.88.04-21.75-.05-32.63.01-1.85-.23-3.36.88-4.55,2.15q-17.97,18.03-35.98,36.03a4.033,4.033,0,0,1-6.88-1.56c-.66-1.8.56-3.48,1.78-4.67q18.735-18.765,37.45-37.55c1.15-1.06,2.33-2.48,4.07-2.37,12.23-.15,24.48-.02,36.71-.05.03-10.96-.02-21.92.02-32.88q-184.785-1.47-369.58-2.97C33.2,104.51,31.34,104.59,29.48,104.71Z" fill="#1cbcd8"/>
    <path id="Path_95" data-name="Path 95" d="M57.56,144.99a4.049,4.049,0,0,1,4.42-4.62q122.565-.045,245.12-.02c1.68-.07,3.63.33,4.48,1.98,1.66,2.51-.51,6.37-3.58,5.99-23.35.11-46.71.03-70.07.04-.12,6.23.21,12.48-.12,18.7-.2,3.97-6.44,4.64-7.64.9-.64-6.51-.01-13.07-.23-19.6-54.71-.03-109.41.11-164.11-.07a66.2,66.2,0,0,0-.27,6.76c.07,32.25-.07,64.51.06,96.77,7.13-.09,14.26.01,21.39-.05a4.309,4.309,0,0,1,4.61,2.56,3.959,3.959,0,0,1-3.67,5.41c-7.46.2-14.92-.02-22.38.06q0,51.69,0,103.37c19.83.16,39.67-.03,59.5.09,3.27-.45,5.73,3.83,3.56,6.35-1.24,1.94-3.66,1.59-5.64,1.65-20.36-.07-40.73.07-61.09-.06-2.93.35-4.77-2.56-4.36-5.21Q57.585,255.485,57.56,144.99Z" fill="#1cbcd8"/>
    <path id="Path_96" data-name="Path 96" d="M445.43,158.65a3.982,3.982,0,0,1,6.05,3.5c.11,9.22.05,18.45.01,27.67.16,3.12-3.94,5.13-6.34,3.18-1.65-1.12-1.66-3.22-1.65-4.98.01-8.35-.02-16.69.02-25.03C443.43,161.35,443.89,159.5,445.43,158.65Z" fill="#1cbcd8"/>
    <path id="Path_97" data-name="Path 97" d="M229.99,192.91c-.36-2.95,3.24-5.14,5.75-3.65,1.8.79,2.28,2.87,2.19,4.66q-.015,44.04,0,88.08,57.54,0,115.07-.01c1.57.02,3.49.08,4.44,1.58a4.087,4.087,0,0,1-1.66,6.12,32.034,32.034,0,0,1-6.71.33c-16.17-.05-32.34-.01-48.51-.02-.02,7.68.09,15.36-.04,23.04a3.988,3.988,0,0,1-6.12,3.54c-2.01-1.12-1.83-3.62-1.88-5.59.02-6.99.06-13.98.05-20.98q-27.33-.03-54.64-.01,0,36.615,0,73.22c18.21.02,36.41-.01,54.62.01.11-7.75-.16-15.51.07-23.26-.27-3.29,4.15-5.28,6.51-3.05,1.63,1.15,1.43,3.29,1.47,5.05-.07,7.08-.01,14.17-.02,21.26,37.09-.06,74.18.12,111.26-.09-.04-24.38.01-48.75-.02-73.12-9.96-.09-19.93.07-29.89-.06a3.967,3.967,0,1,1-.05-7.92c11.39-.08,22.79-.05,34.18-.01,2.18-.33,4.07,1.87,3.86,3.97-.19,27.02.04,54.06-.12,81.09a4.072,4.072,0,0,1-4.76,4.14q-114.54.06-229.07.02c-2.83.44-5.54-2.36-4.58-5.16a4.155,4.155,0,0,1,4.51-2.84c14.67-.06,29.35,0,44.02-.02q.045-51.72-.01-103.43-57.465.015-114.93.01c-1.8.07-3.95-.23-4.84-2.04a4.006,4.006,0,0,1,3.85-5.94c38.66-.16,77.34.09,116.01-.12Q229.85,222.31,229.99,192.91Z" fill="#1cbcd8"/>
    <path id="Path_98" data-name="Path 98" d="M68.44,440.52a30.652,30.652,0,0,1,6.56-.54c114.38.1,228.78-.1,343.16.1,13.86,6.57,27.67,13.53,41.57,20.14,1.92.85,4.18,2.3,3.84,4.76-.05,2.11-2.03,3.16-3.67,3.97-14.02,6.75-27.97,13.68-42,20.38q-171.915-.12-343.86-.02c-15.12.62-28.9-15.15-24.82-30.07a24.819,24.819,0,0,1,19.22-18.72M62.76,451.7c-8.38,6.19-8.25,20.33.23,26.36,6.28,4.74,14.53,2.83,21.81,3.21-.02-11.09-.04-22.17.01-33.26-7.38.38-15.97-1.71-22.05,3.69M92.81,448c-.02,11.09,0,22.18,0,33.27,4.99-.02,9.99.01,14.99.01-.07-11.09-.03-22.18-.01-33.27-4.99-.02-9.98-.01-14.98-.01m22.99,0q0,6.345.01,12.7,148.62.045,297.26.02.015-6.36,0-12.72H115.8m305.29,2.35c-.15,9.51.12,19.02-.08,28.53,9.8-4.68,19.6-9.39,29.3-14.28-9.73-4.77-19.49-9.47-29.22-14.25M115.81,468.73q-.015,6.255,0,12.53,148.62.06,297.26.01.015-6.27,0-12.53Q264.435,468.68,115.81,468.73Z" fill="#1cbcd8"/>
  </g>
</svg>
