<svg xmlns="http://www.w3.org/2000/svg" width="486.768" height="429.499" viewBox="0 0 486.768 429.499">
  <g id="_010101ff" data-name="#010101ff" transform="translate(-12.687 -41.277)">
    <path id="Path_55" data-name="Path 55" d="M47.13,44.87c.03-2.45,2.64-3.83,4.85-3.56q77.535-.015,155.07,0c2.23-.27,4.78,1.13,4.85,3.58.26,4.54-.09,9.1.12,13.65,3.3.12,6.71-.47,9.93.35,3.02,1.53,2.13,5.36,2.23,8.11.03,66.55-.1,133.1.06,199.66q134.055-43.875,268.27-87.3c1.62-.51,3.63-1.19,5.12.05,2.77,1.98,1.51,5.77,1.7,8.64q-.045,138.99-.02,277.98c.47,3.02-2.46,5.15-5.25,4.68q-237.06-.12-474.1-.07c-4.54.34-5.45-7.13-.91-7.82,5.3-.36,10.63-.02,15.95-.14V425.81c-13.79-2.65-25.23-17.08-21.65-31.26,3.35-13.54,8.65-26.48,13.74-39.42,1.27-3.56,4.55-5.78,7.68-7.57.15-94.87.01-189.74.06-284.61a3.983,3.983,0,0,1,3.53-4.36c2.89-.26,5.79-.07,8.68-.07.08-4.55-.16-9.1.09-13.65m7.93,4.45c-.02,3.07-.02,6.13-.01,9.2,49.65-.05,99.29.03,148.93-.04.01-3.05-.01-6.11-.05-9.16q-74.43,0-148.87,0M42.89,66.49q-.15,95.76-.04,191.52c.09,29.87-.18,59.74.14,89.6,3.32,1.58,6.58,3.93,7.93,7.5,4.46,11.08,8.92,22.19,12.22,33.69,1.48,4.9,2.85,10.08,1.8,15.22C62.87,414.8,53.73,423.65,43,425.76v36.93c17.66-.03,35.32,0,52.98-.01.04-12.3.01-24.59.01-36.88-10.68-2.18-19.83-10.94-21.92-21.71-1.2-5.77.66-11.53,2.29-17.01,3.12-10.64,7.32-20.93,11.4-31.23a14.092,14.092,0,0,1,8.62-8.32c6.4-2.25,13.62,2.18,15.84,8.28,5.09,12.78,10.29,25.6,13.5,39.01,3.31,14.01-7.93,28.4-21.64,30.86-.18,12.34-.04,24.67-.07,37.01,17.66-.06,35.33.04,52.99-.04q0-18.42-.01-36.83c-13.68-2.63-25.07-16.87-21.7-30.98,3.15-13.42,8.41-26.21,13.48-38.99,2.17-5.9,8.94-10.32,15.23-8.5a14.144,14.144,0,0,1,9.24,8.52c5.08,12.77,10.28,25.57,13.48,38.96,3.33,14.09-8,28.39-21.72,30.96q0,18.45.01,36.9c11.73-.1,23.46.14,35.19-.12-.15-61.19.03-122.37-.07-183.55-.03-1.82.03-4.14,1.93-5.06,4.55-1.97,9.42-3.1,14.09-4.76q-.045-101.34-.04-202.67-86.61-.03-173.22-.04M467.42,196.03c.08,45.33-.02,90.66.05,135.99-.19,2.84.56,5.99-.75,8.62-2.1,3.33-7.82,1.29-7.28-2.63q-.06-69.735-.03-139.46-13.245,4.32-26.5,8.62-.105,117.075-.03,234.14c8.84-.04,17.68.03,26.52-.02.12-15.4-.09-30.8.09-46.19a3.969,3.969,0,0,1,5.75-3.37c1.65.66,2.26,2.55,2.19,4.2q.045,22.7.01,45.39c7.95-.04,15.91-.01,23.87-.02q-.06-126.51-.05-253.04c-7.96,2.53-23.84,7.77-23.84,7.77m-69.16,22.31c.18,74.32-.04,148.64.11,222.96,8.83.03,17.67-.02,26.51.01q-.06-115.755,0-231.52c-8.89,2.8-17.68,5.9-26.62,8.55M363.75,229.7q.075,105.81.02,211.61c8.84,0,17.69-.02,26.54,0q.015-110.16.01-220.31c-8.85,2.92-17.73,5.76-26.57,8.7M329.2,240.92c.09,10.03-.07,20.06.06,30.09.06,1.91-.17,4.24-2.12,5.18a3.916,3.916,0,0,1-5.85-3.02c-.23-9.89-.03-19.79-.09-29.68q-56.505,18.375-113.02,36.75-.045,80.52-.03,161.06,12.2,0,24.39.02c.04-15.77-.03-31.54.03-47.31a4.094,4.094,0,0,1,4.38-4.68q28.08-.075,56.15,0a4.078,4.078,0,0,1,4.27,3.84c-.05,16.04-.09,32.09-.02,48.13,7.95.01,15.89.02,23.83-.01.07-48.46-.05-96.93.06-145.39-.26-5.05,8.29-5.09,7.92.06.13,48.45.03,96.91.05,145.36,8.85-.04,17.7-.01,26.55,0q-.015-104.55.01-209.09c-8.84,2.97-17.74,5.74-26.57,8.69M37.12,355.15c-1.77.54-2.36,2.46-3.03,3.97-4.55,11.81-9.41,23.53-12.69,35.77-1.68,6.26-.1,13.52,4.66,18.07,7.18,7.03,20.26,6.59,26.86-1.03a19.118,19.118,0,0,0,3.5-17.8c-3.48-12.48-8.24-24.56-13.2-36.51-.78-2.6-3.79-3.11-6.1-2.47m60.97.02c-1.73.52-2.32,2.41-2.99,3.89-4.65,11.84-9.56,23.63-12.74,35.97-1.55,6.02-.14,12.92,4.22,17.45,7.05,7.5,20.55,7.26,27.31-.51,4.22-4.8,5.33-11.83,3.52-17.87-3.46-12.44-8.22-24.46-13.13-36.38-.78-2.6-3.85-3.33-6.19-2.55m60.98.01c-1.74.54-2.31,2.45-2.99,3.93-4.63,11.78-9.52,23.52-12.69,35.8a18.8,18.8,0,0,0,4.18,17.58c7.05,7.51,20.6,7.28,27.35-.53,4.21-4.82,5.29-11.84,3.49-17.89-3.47-12.45-8.25-24.48-13.15-36.41-.85-2.59-3.82-3.31-6.19-2.48m81.75,42.12c-.56,14.65-.13,29.34-.22,44.01,6.81,0,13.61.02,20.41-.04-.15-14.64-.06-29.28-.04-43.93-6.72-.09-13.44.04-20.15-.04m28.12.02q-.045,21.99-.01,43.99,10.185-.03,20.38,0c-.16-14.68.3-29.38-.23-44.05-6.72.18-13.43,0-20.14.06m-60.73,52.02c-.03,4.44-.08,8.88-.03,13.33q141.45.075,282.91.05c.42-4.44.15-8.9.22-13.35Q349.755,449.22,208.21,449.34Z" fill="#1cbcd8"/>
    <path id="Path_56" data-name="Path 56" d="M74.28,91.32c1.46-.7,3.14-.4,4.7-.5q51,.045,102.01.02c2.47-.37,5.23,1.38,4.98,4.09q.09,13.575.01,27.17c.32,2.78-2.41,4.77-5.01,4.34q-51.99.015-103.99,0c-2.14.22-4.64-1.11-4.69-3.47-.25-8.66,0-17.33-.12-25.99-.04-2.03-.05-4.64,2.11-5.66m5.98,7.62c-.11,6.43-.02,12.87-.08,19.31,32.6.41,65.21.06,97.82.18V98.85C145.42,98.91,112.84,98.73,80.26,98.94Z" fill="#1cbcd8"/>
    <path id="Path_57" data-name="Path 57" d="M75.18,141.31c35.29-.37,70.61-.05,105.9-.16,2.28-.31,4.9,1.23,4.85,3.73.16,9.07.04,18.15.06,27.23a4.261,4.261,0,0,1-4.99,4.67q-52-.03-104-.01c-2.22.27-4.73-1.24-4.73-3.65-.2-9.04-.01-18.1-.08-27.14-.21-2.01.88-4.27,2.99-4.67m5.04,7.86c0,6.52.02,13.05,0,19.57,32.59.04,65.18-.03,97.77.04q.03-9.825,0-19.64C145.4,149.21,112.81,149.15,80.22,149.17Z" fill="#1cbcd8"/>
    <path id="Path_58" data-name="Path 58" d="M74.19,192.05c1.46-.78,3.19-.45,4.78-.56q51.03.06,102.07.02c2.61-.41,5.34,1.65,4.94,4.43.03,9.05.07,18.1-.02,27.15.19,2.64-2.49,4.4-4.92,4.03q-52.05.045-104.09,0c-2.41.35-4.95-1.47-4.71-4.04-.12-8.71-.01-17.43-.05-26.14-.08-1.81.18-3.98,2-4.89m6.04,7.6c-.02,6.47-.07,12.93.03,19.4,32.57.16,65.16.03,97.74.07v-19.6C145.41,199.61,112.82,199.36,80.23,199.65Z" fill="#1cbcd8"/>
    <path id="Path_59" data-name="Path 59" d="M74.29,242.31c2.77-.98,5.81-.37,8.69-.48q48.99-.015,97.98-.02c2.48-.36,5.2,1.41,5.01,4.11q.09,13.545.01,27.11a3.931,3.931,0,0,1-3.97,4.4q-52.515.06-105.03.01a4.125,4.125,0,0,1-4.76-4.38c-.08-8.71.02-17.43-.04-26.14-.11-1.76.38-3.78,2.11-4.61m5.91,7.63q.06,9.69-.01,19.39c32.6.23,65.21.02,97.81.11V249.85C145.4,249.91,112.79,249.73,80.2,249.94Z" fill="#1cbcd8"/>
    <path id="Path_60" data-name="Path 60" d="M75.13,292.32c35.29-.39,70.61-.06,105.91-.17,2.27-.29,5.03,1.15,4.89,3.73q.18,14.07,0,28.15c.06,2.53-2.6,4.06-4.89,3.74q-52.065,0-104.12-.01c-2.29.31-4.78-1.36-4.67-3.81-.13-9-.03-18.01-.05-27.01-.2-1.98.86-4.19,2.93-4.62m5.12,7.89c-.07,6.5-.08,13,.02,19.5,32.57.11,65.15,0,97.72.05.01-6.53.03-13.05-.01-19.58C145.4,300.18,112.82,300.13,80.25,300.21Z" fill="#1cbcd8"/>
    <path id="Path_61" data-name="Path 61" d="M462.41,355.42a3.907,3.907,0,0,1,4.96,3.62c.2,4.34,0,8.69.13,13.04-.07,2,.26,4.54-1.68,5.83-2.36,1.95-6.42.14-6.33-2.98-.15-4.99-.04-9.98-.08-14.96A4.218,4.218,0,0,1,462.41,355.42Z" fill="#1cbcd8"/>
  </g>
</svg>
