<svg xmlns="http://www.w3.org/2000/svg" width="494.903" height="481.695" viewBox="0 0 494.903 481.695">
  <g id="_010101ff" data-name="#010101ff" transform="translate(-8.595 -15.197)">
    <path id="Path_62" data-name="Path 62" d="M281.98,20.14c8.66-1.5,17.28-3.33,25.95-4.78a4.027,4.027,0,0,1,4.95,4.68c-1.53,8.7-3.22,17.37-4.73,26.08-.38,3.34-3.46,5.22-5.54,7.51Q190.83,165.305,79.08,277.03c-4.15,3.88-7.87,8.22-12.22,11.88-6.54,5.31-16.13,5.28-23.35,1.34-3.62,3.45-6.86,7.33-10.75,10.49-3.17,2.44-7.79-2.15-5.43-5.36,3.15-3.93,7.07-7.15,10.53-10.79-2.48-4.75-4.06-10.28-2.48-15.59,1.64-7.23,7.85-11.82,12.71-16.89,5.66-5.89,11.63-11.46,17.27-17.36-4.62-4.63-8.09-10.95-7.53-17.66a23.383,23.383,0,0,1,7.48-14.8q30.555-30.42,61.06-60.88c3.7-3.7,7.33-7.71,9.11-12.72,1.41-3.47,1.37-7.3,2.38-10.87,1.5-3.34,7.07-2.47,7.43,1.2-.08,10.66-5.39,20.88-13.18,28.01q-31.335,31.2-62.61,62.46a12.469,12.469,0,0,0-3.49,11.53c.42,3.32,2.89,5.77,5.05,8.11Q172.835,127.37,274.59,25.59c2.22-2.08,4.15-4.98,7.39-5.45m5.93,7.04c-6.25.35-9.32,6.56-13.68,10.15,5.58,5.53,11.1,11.12,16.67,16.66,3-3.37,6.88-6.04,9.27-9.9,1.65-6.54,2.44-13.28,3.78-19.89-5.35.99-10.68,2.05-16.04,2.98M268.54,42.99q-95.775,95.985-191.7,191.82c5.55,5.48,11.04,11.01,16.55,16.53Q189.36,155.565,285.21,59.7c-5.5-5.63-11.1-11.15-16.67-16.71M62.19,249.38c5.56,5.49,11.06,11.06,16.61,16.57q4.47-4.455,8.93-8.94-8.265-8.31-16.59-16.57c-2.99,2.97-5.97,5.96-8.95,8.94M45.81,265.82a10.882,10.882,0,0,0-3.12,8.16c-.09,8.16,10.11,14.87,17.29,10.17,4.9-3.55,8.66-8.4,13.12-12.46-5.43-5.64-11.1-11.05-16.55-16.67C53,258.65,49.29,262.12,45.81,265.82Z" fill="#1cbcd8"/>
    <path id="Path_63" data-name="Path 63" d="M393.41,31.53a31.382,31.382,0,0,1,26.82,5.16c13.77,10.26,15.19,32.63,3.2,44.8-15.93,16.06-31.99,31.99-47.95,48.01a24.144,24.144,0,0,1-14.47,7.36c-9.73.9-19.68-5.43-22.61-14.84-3.07-7.92-.13-17.12,5.76-22.92q21.42-21.48,42.9-42.92c3.72-3.98,9.87-5,14.87-3.1,5.2,1.85,8.32,7.61,7.89,12.97a14.641,14.641,0,0,1-4.73,9.09c-11.57,11.44-22.97,23.06-34.57,34.47-1.93,2.24-5.96,1.16-6.65-1.67-.75-2,.75-3.75,2.06-5.05,11.49-11.47,23.02-22.92,34.44-34.46,3.05-2.63,1.17-7.7-2.45-8.67-2.28-.8-4.16,1.1-5.65,2.52q-21.435,21.54-42.96,42.99a12.94,12.94,0,0,0-4.11,9.72c-.5,7.84,7.14,14.8,14.87,13.93,3.85-.08,7.2-2.32,9.74-5.05q21.96-22.05,44-44.01c4.56-4.31,9.01-9.34,10.03-15.77,2.56-13.57-10.23-27.18-23.85-26.11-5.87.44-11.2,3.57-15.23,7.74q-21.21,21.24-42.41,42.51c-1.23,1.07-2.49,2.56-4.3,2.34a4.022,4.022,0,0,1-3.36-5.72c1.65-2.37,3.89-4.22,5.89-6.28Q360.1,59.055,379.59,39.5A29.775,29.775,0,0,1,393.41,31.53Z" fill="#1cbcd8"/>
    <path id="Path_64" data-name="Path 64" d="M496.5,58.67c2.19-2.75,7-1.04,6.98,2.48q-.09,215.415-.05,430.83c.56,3.19-2.45,5.37-5.39,4.83q-212.535.045-425.06.02c-2.76-.24-6.24.77-8.31-1.61-1.55-2.13-.37-4.77,1.44-6.27Q281.36,273.865,496.5,58.67M77.72,488.79c13.8.01,27.6-.04,41.41.02.08-4.23-.29-8.48.19-12.69.69-3.71,6.76-3.83,7.56-.15.55,4.25.15,8.55.24,12.82,7.8-.09,15.61.13,23.42-.08.11-4.28-.4-8.61.25-12.85.96-3.45,6.48-3.46,7.46-.01.66,4.27.15,8.64.26,12.95,7.79-.01,15.58-.06,23.38,0,.1-4.27-.39-8.58.22-12.82.84-3.7,6.84-3.61,7.57.12.48,4.19.1,8.43.19,12.64q11.685.12,23.35,0c.15-4.35-.39-8.76.33-13.06,1.2-3.41,6.69-3.13,7.53.4.47,4.22.05,8.48.14,12.72,7.81-.06,15.62,0,23.43-.01.08-4.23-.29-8.48.17-12.69.71-3.66,6.41-3.8,7.53-.35.68,4.27.16,8.63.27,12.94,7.79.25,15.59,0,23.38.1.09-4.27-.29-8.57.23-12.82.91-3.58,6.54-3.57,7.55-.05.5,4.27.12,8.59.22,12.89,7.78-.1,15.57.02,23.35-.01.15-4.37-.39-8.8.32-13.13,1.18-3.36,6.66-3.15,7.47.36.52,4.22.17,8.51.22,12.76,7.81.05,15.61-.08,23.42.01.05-4.28-.37-8.59.21-12.84.88-3.4,6.19-3.65,7.45-.39.73,4.35.18,8.81.33,13.22,7.78-.07,15.57.07,23.35-.02.16-4.39-.43-8.86.35-13.19,1.25-3.29,6.66-3,7.43.46.59,4.22.15,8.51.21,12.76,7.8,0,15.6-.07,23.4.01.16-4.31-.4-8.67.24-12.94,1-3.44,6.47-3.54,7.49-.07.64,4.28.13,8.65.31,12.96,7.76.03,15.52.05,23.29,0,.11-4.26-.26-8.55.28-12.79.86-3.66,6.81-3.57,7.56.12.48,4.22.1,8.48.19,12.71,7.79-.05,15.58-.02,23.36,0,.15-4.4-.4-8.86.32-13.21,1.25-3.32,6.66-3.04,7.47.44.49,4.22.13,8.49.25,12.74,7.69.07,15.38-.02,23.07,0,.15-8.39.1-16.78.06-25.17-4.31-.13-8.66.34-12.93-.28-3.57-1.07-3.24-6.98.45-7.59,4.16-.41,8.35-.05,12.52-.14-.05-7.8.03-15.6-.04-23.4-4.15-.02-8.32.38-12.44-.13-3.74-.54-4.08-6.46-.5-7.54,4.28-.64,8.63-.17,12.94-.3.07-7.79.01-15.59.01-23.38-4.34-.12-8.72.37-13.02-.29-3.59-1.09-3.1-7.1.64-7.54,4.11-.5,8.27-.1,12.4-.14-.03-7.8.02-15.59,0-23.38-4.46-.15-9.03.51-13.42-.46-3.05-1.46-2.65-6.58.72-7.33,4.2-.55,8.47-.09,12.7-.21.03-7.79-.04-15.59,0-23.38-4.14-.07-8.3.27-12.42-.14-3.73-.46-4.16-6.35-.65-7.54,4.31-.7,8.72-.18,13.07-.3-.04-7.8.03-15.6,0-23.39-4.15-.09-8.31.22-12.44-.19-3.5-.47-4.17-5.93-1-7.35,4.28-1.13,8.79-.09,13.17-.56.7-7.7.01-15.52.29-23.26-4.18-.11-8.38.24-12.55-.15-3.68-.72-4.01-6.5-.42-7.6,4.27-.62,8.62-.17,12.93-.29.02-7.78.05-15.56-.01-23.35-4.14-.08-8.29.26-12.41-.16-3.65-.47-4.14-6.25-.76-7.5,4.35-.73,8.81-.19,13.21-.32q-.03-11.715-.01-23.42c-4.31-.11-8.67.39-12.95-.27-3.56-1.06-3.29-6.93.43-7.54,4.15-.44,8.34-.11,12.51-.22.03-7.78.01-15.56-.01-23.34-4.43-.16-8.95.49-13.31-.39-3.06-1.3-2.82-6.28.34-7.31,4.29-.68,8.67-.16,13-.28-.05-7.8.01-15.6-.01-23.4-4.34-.11-8.73.38-13.03-.29-3.19-1.09-3.29-6.07-.2-7.34,4.35-.81,8.82-.21,13.23-.35.04-7.79-.05-15.58.01-23.37-4.44-.16-8.94.41-13.34-.35-3.08-1.48-2.82-6.63.61-7.43,4.21-.57,8.49-.14,12.72-.22q-.015-19.74,0-39.48Q286.57,279.885,77.72,488.79Z" fill="#1cbcd8"/>
    <path id="Path_65" data-name="Path 65" d="M280.32,145.44c11.88-3.71,25.97,3.73,29.54,15.68,3.35,9.3.35,20.21-6.86,26.86Q181.275,309.645,59.57,431.35c-13.64,4.85-27.4,9.45-41.05,14.29a29.366,29.366,0,0,1-6.54,1.85c-2.98-.47-4.18-3.9-2.84-6.41,5.15-14.88,10.19-29.82,15.47-44.65Q142.45,278.395,260.47,160.47c6.04-5.67,11.38-12.95,19.85-15.03m-13.6,20.3c7.92,7.81,15.73,15.72,23.61,23.56,4.81-5.15,11.28-9.55,13.08-16.76,2.47-10.46-7.65-21.5-18.31-19.98-8.18.59-12.93,8.04-18.38,13.18M250.4,181.97c7.85,7.91,15.76,15.75,23.61,23.66q5.37-5.28,10.65-10.65-11.8-11.835-23.64-23.63-5.325,5.28-10.62,10.62M33.67,398.71c3.02,2.97,6,5.97,8.99,8.97Q148.17,302.14,253.71,196.63c-3-2.99-6-5.97-8.96-8.99Q139.165,293.12,33.67,398.71m14.68,14.64c2.98,3.04,5.97,6.06,9.08,8.97Q162.79,316.75,268.34,211.38c-2.93-3.08-5.94-6.08-8.96-9.05Q153.885,307.855,48.35,413.35M19.04,436.94q15.42-5.37,30.86-10.68c-6.75-6.74-13.51-13.46-20.21-20.24C26.22,416.35,22.55,426.62,19.04,436.94Z" fill="#1cbcd8"/>
    <path id="Path_66" data-name="Path 66" d="M418.5,246.44c2.53-2.65,7.24.05,6.54,3.56q.06,81.48.01,162.98c.39,2.56-1.04,5.72-4.05,5.43-52.67.1-105.34-.02-158.01.06-2.98-.1-6.08.4-8.95-.55-2.73-1.45-2.46-5.37-.09-7.05Q336.255,328.7,418.5,246.44M265.79,410.4c50.42.08,100.85,0,151.27.04q.03-75.675-.01-151.33Q341.4,334.725,265.79,410.4Z" fill="#1cbcd8"/>
  </g>
</svg>
