<svg xmlns="http://www.w3.org/2000/svg" width="483.972" height="419.673" viewBox="0 0 483.972 419.673">
  <g id="_010101ff" data-name="#010101ff" transform="translate(-13.994 -46.169)">
    <path id="Path_74" data-name="Path 74" d="M33.83,47.62c5.2-1.88,10.81-1.37,16.23-1.43q209.49.015,418.97,0c15.27-.38,29.28,13.55,28.93,28.83q-.03,148.005-.02,296c-.04,11.25-7.83,21.58-17.99,25.94-4.69,2.09-9.91,2.28-14.96,2.11-48.13-.07-96.26.08-144.38-.07,4.12,19.61,8.37,39.2,12.55,58.8,14.95-.01,29.9-.06,44.85.02,3.16-.53,5.75,3.31,3.97,6.02-.93,1.79-3.08,2.03-4.88,1.98q-121.545-.06-243.08-.02c-3.04.47-5.67-3.03-4.14-5.78,1.04-2.42,3.94-2.25,6.13-2.25q21.42.03,42.83.02c4.21-19.56,8.35-39.14,12.58-58.7q-74.175-.105-148.36-.03c-15.08.49-28.97-13-29.05-28.05Q13.965,222.99,14,74.98c-.26-12.17,8.54-23.42,19.83-27.36M27.94,59.91C23.63,64.03,21.85,70.13,22,75.97V316.78q233.97.2,467.93.08.09-120.4.02-240.8c.29-7.28-2.8-14.97-9.29-18.75-5.83-3.85-13.06-2.99-19.68-3.1q-208.5.03-416.98.02c-5.81-.2-11.88,1.47-16.06,5.68M22,324.85c.04,15.4-.08,30.8.06,46.2.05,7.11,3.85,14.28,10.31,17.53,5.07,2.88,11.07,2.5,16.69,2.5q209.49-.03,418.99-.01c5.6.12,11.46-1.39,15.59-5.35,4.37-3.94,6.34-9.91,6.3-15.7q.045-22.575,0-45.17H22m177.57,74.22q-6.225,29.385-12.56,58.73c45.98-.05,91.95.02,137.93-.03-4.13-19.57-8.38-39.12-12.53-58.68Q255.98,399,199.57,399.07Z" fill="#1cbcd8"/>
    <path id="Path_75" data-name="Path 75" d="M246.44,68.58c4.83-.44,9.69-.01,14.53-.17,2.35.14,5.38-.56,6.99,1.67,1.88,2.31.05,6.36-2.98,6.32-6.29.02-12.63.28-18.9-.18C242.19,75.39,242.58,69.06,246.44,68.58Z" fill="#1cbcd8"/>
    <path id="Path_76" data-name="Path 76" d="M59.21,106.18c9.54-.94,19.25-.11,28.86-.41,2.44.18,5.72-.68,7.36,1.69,1.97,2.49-.16,6.59-3.35,6.3-9.34.15-18.7-.05-28.05.08-2.11-.13-4.83.4-6.25-1.59A4.039,4.039,0,0,1,59.21,106.18Z" fill="#1cbcd8"/>
    <path id="Path_77" data-name="Path 77" d="M172.75,110.97c-.07-1.84.36-4.12,2.32-4.81,1.92-.58,3.96-.34,5.94-.39,62.34.07,124.68-.06,187.02.05,2.7-.38,5.28,2.47,4.3,5.12a4.067,4.067,0,0,1-4.3,2.85c-17.74.04-35.48,0-53.22.01-.13,4.71.24,9.43-.15,14.13-.59,3.98-7.1,4.08-7.71.04-.4-4.71-.02-9.44-.2-14.16q-62.985-.015-125.97,0-.03,39.315-.01,78.62c5.9.12,11.82-.31,17.7.22,3.9.93,3.54,7.28-.46,7.68-5.74.32-11.49-.02-17.24.14q.015,39.315.02,78.63c14.75.04,29.49.01,44.24.01,1.83-.08,4,.22,4.9,2.07a4.018,4.018,0,0,1-3.83,5.91c-15.71.13-31.42,0-47.13.06-2.08,0-4.84.08-5.8-2.2-.7-2.25-.35-4.67-.42-6.99Z" fill="#1cbcd8"/>
    <path id="Path_78" data-name="Path 78" d="M412.05,107.11a4.842,4.842,0,0,1,3.96-1.34c12,.06,24.01-.05,36.01.05a3.987,3.987,0,0,1,4.24,4.17c-.05,57.7.04,115.41-.04,173.11a3.931,3.931,0,0,1-4.14,4.03q-89.04.03-178.09,0c-1.6-.02-3.46-.2-4.34-1.75-1.89-2.45.19-6.46,3.3-6.21,11.28-.15,22.57.01,33.85-.06q-.03-39.345-.02-78.68c-29.59.05-59.19-.01-88.78.03a4.065,4.065,0,1,1-.01-8.02c29.59-.06,59.19.05,88.79-.05.11-15.15-.19-30.31.13-45.44.16-4.53,7.77-4.44,7.81.09.16,22.95.09,45.91.08,68.87,29.78.13,59.57-.1,89.34.1,3.34-.49,5.52,3.99,3.31,6.43-1.25,1.72-3.57,1.43-5.42,1.51-12.84-.05-25.67-.02-38.51-.02-.2,6.18.41,12.41-.25,18.56-1.03,3.69-7.16,3.34-7.61-.49-.38-6.01,0-12.05-.2-18.07q-20.325,0-40.64,0c-.04,18.4-.01,36.79-.01,55.19h40.7c.15-6.03-.28-12.08.14-18.1.55-3.88,6.73-4.15,7.65-.36.54,6.12.05,12.31.25,18.46q42.345,0,84.68-.01V223.93c-7.74-.11-15.49.2-23.22-.13-3.83-.35-4.48-6.18-.96-7.57,8.03-.75,16.12-.04,24.18-.29q-.015-51.06-.01-102.11c-10.6.05-21.22-.26-31.81.18q-14.475,14.745-29.19,29.26a4.016,4.016,0,0,1-6.8-1.67c-.67-2.07.84-3.81,2.23-5.13C392.49,126.73,402.2,116.85,412.05,107.11Z" fill="#1cbcd8"/>
    <path id="Path_79" data-name="Path 79" d="M59.42,128.57a19.858,19.858,0,0,1,4.62-.32c15.01.08,30.03-.04,45.04.05a4,4,0,0,1,3.39,6.36c-1.19,1.8-3.56,1.59-5.43,1.67-15.34-.1-30.69.03-46.02-.06C56.72,136.62,55.42,129.96,59.42,128.57Z" fill="#1cbcd8"/>
    <path id="Path_80" data-name="Path 80" d="M129.37,128.48a21.95,21.95,0,0,1,8.2.16c3.31,1.3,2.93,6.77-.62,7.47a23.868,23.868,0,0,1-7.91-.15C125.65,134.75,125.92,129.39,129.37,128.48Z" fill="#1cbcd8"/>
    <path id="Path_81" data-name="Path 81" d="M58.52,151.57c2.87-1.51,6.34-.58,9.46-.84,4.62.13,9.27-.24,13.88.24,3.63.97,3.58,6.77-.09,7.62-6.9.4-13.86.13-20.78.14C57.27,159.06,55.45,153.63,58.52,151.57Z" fill="#1cbcd8"/>
    <path id="Path_82" data-name="Path 82" d="M96.39,151.46c.4-.14,1.19-.43,1.59-.57,10.36-.32,20.75-.08,31.12-.1,3.08-.06,4.89,4.02,2.97,6.36-1.36,2-4.03,1.55-6.11,1.65-9.28-.14-18.58.15-27.86-.13C94.59,158.48,93.41,153.26,96.39,151.46Z" fill="#1cbcd8"/>
    <path id="Path_83" data-name="Path 83" d="M58.5,217.59c1.87-1.3,4.32-.75,6.46-.88,9.65.3,19.33-.35,28.96.28,3.93,1.12,3.24,7.66-.91,7.7-9.99.22-19.99,0-29.98.1-1.81-.07-4.1.17-5.21-1.59A3.927,3.927,0,0,1,58.5,217.59Z" fill="#1cbcd8"/>
    <path id="Path_84" data-name="Path 84" d="M108.37,217.48c3.32-1.43,7.18-.44,10.71-.73,3.87.16,7.88-.52,11.66.47,3.56,1.62,2.23,7.68-1.75,7.49-6.29.08-12.6.2-18.89-.05C106.6,224.48,105.42,219.28,108.37,217.48Z" fill="#1cbcd8"/>
    <path id="Path_85" data-name="Path 85" d="M58.42,240.5c1.24-1.14,3.03-.82,4.56-.91,15.34.13,30.69-.07,46.03.09a4.02,4.02,0,0,1,3.7,6.04c-1.08,2.05-3.67,1.96-5.65,1.95-15.4-.1-30.8.08-46.19-.08C57.25,247.82,55.52,242.57,58.42,240.5Z" fill="#1cbcd8"/>
    <path id="Path_86" data-name="Path 86" d="M251.32,345.4c9.44-3.95,20.65,5.67,19.15,15.53a15.885,15.885,0,0,1-11.86,12.52c-8.85,1.89-17.86-6.56-17.2-15.42.58-5.62,4.77-10.5,9.91-12.63m1.02,7.94c-4.63,2.58-3.8,11.38,1.81,12.17,4.17,1.28,9.07-1.87,8.43-6.5C263.17,353.57,256.55,350.92,252.34,353.34Z" fill="#1cbcd8"/>
  </g>
</svg>
