<svg xmlns="http://www.w3.org/2000/svg" width="488.623" height="386.729" viewBox="0 0 488.623 386.729">
  <g id="_010101ff" data-name="#010101ff" transform="translate(-11.687 -62.676)">
    <path id="Path_87" data-name="Path 87" d="M106.71,70.73a107.976,107.976,0,0,1,58.34-6.59,112.856,112.856,0,0,1,75.26,48.43,65.308,65.308,0,0,1,41.56,15.62c14.52,12.17,23.62,30.8,23.49,49.82a3.871,3.871,0,0,1-4.22,3.98c-40.38.11-80.77.01-121.15.05-2.21.23-4.92-.5-5.38-3.02-1.18-31.95,24.84-61.68,56.36-65.79a102.889,102.889,0,0,0-54.65-38.49,105.169,105.169,0,0,0-62.16,1.48,103.057,103.057,0,0,0-69.64,97.76q-.045,32.34.01,64.7c5.33,2.36,10.04,7.24,10.18,13.35.25,6.41-4.62,11.75-10.22,14.19q0,87.54,0,175.09c7.14.12,14.29-.23,21.42.12,4.29.24,4.46,7.33.16,7.75-16.01.36-32.05.06-48.07.16-1.72-.14-3.83.26-5.11-1.19-2.43-2.01-.92-6.55,2.22-6.73,7.11-.33,14.24.01,21.36-.12q0-87.525-.01-175.05c-5.61-2.47-10.51-7.87-10.23-14.31.26-6.06,4.9-10.94,10.23-13.28.04-21.21-.01-42.43.02-63.64a109.122,109.122,0,0,1,15.91-57.65,113.771,113.771,0,0,1,54.32-46.64m94.04,64.96a57.742,57.742,0,0,0-18.16,38.34q57.345.045,114.69,0c-.33-3.04-.76-6.08-1.29-9.09-10.26-.15-20.53.22-30.77-.17-3.96-.5-4.16-7.11-.14-7.67,9.48-.5,19,.09,28.49-.21a58.327,58.327,0,0,0-11.4-18.13c-10.84-11.95-27.08-18.5-43.15-18.13a57.4,57.4,0,0,0-38.27,15.06M38.34,246.46c-4.3.93-5.16,6.74-3,9.99,1.67,2.46,5,2.26,7.6,1.86,3.91-1.08,4.56-6.23,2.99-9.4C44.49,246.22,41.01,245.91,38.34,246.46Z" fill="#1cbcd8"/>
    <path id="Path_88" data-name="Path 88" d="M243.37,157.54c2.65-1.05,5.76-.75,8.54-.34,3.33,1.13,3.27,6.48-.13,7.47a21.161,21.161,0,0,1-7.57.01C241.14,163.78,240.55,159.11,243.37,157.54Z" fill="#1cbcd8"/>
    <path id="Path_89" data-name="Path 89" d="M110.55,259.48c1.17-14.72,14.58-27.39,29.41-27.43q65.655-.045,131.31-.02a20.373,20.373,0,0,1,12.85,6.5,19.418,19.418,0,0,1,13.82-6.33c41.71-.04,83.43.05,125.14-.04,8.63-.83,17.77,1.61,24.17,7.64a29.59,29.59,0,0,1,10.52,22.13c-.13,4.5.4,9.08-.33,13.54-1.22,3.41-6.83,3.07-7.51-.53-.84-6.83.97-13.98-1.51-20.59a20.471,20.471,0,0,0-12.23-12.6c-3.85-1.64-8.09-1.52-12.18-1.53q-63.045.015-126.1.03a9.61,9.61,0,0,0-9.89,9.65q-.075,44.145-.02,88.3H450.31c.01-12.76-.04-25.52.01-38.28,0-13.01,11.67-24.78,24.67-24.92,13.25-.23,25.27,11.76,25.32,24.96q-.06,42.045-.01,84.08c.24,13.46-11.91,25.37-25.24,25.57-5.67-.06-11.34-.26-17.01-.19,3.33,10.62,6.6,21.26,9.91,31.88,8.25.13,16.53-.26,24.77.18,4.3.71,3.74,7.78-.63,7.8-11.7.04-23.4.13-35.09.06-1.95-.14-4.47.36-5.71-1.57-9.41-12.67-18.49-25.6-27.86-38.3q-139.05-.06-278.11-.01c-8.19,11.15-16.21,22.42-24.37,33.58-1.61,2.04-2.8,4.56-5.04,5.99-3.97.6-8.03.32-12.03.24a3.9,3.9,0,0,1-3.9-5.16c3.43-11.59,7.17-23.08,10.68-34.65-6.97-.4-14,.68-20.93-.27-11.7-2.13-21.52-13.07-21.26-25.14q0-42.06.01-84.12c-.04-13.3,12.23-25.32,25.54-24.92,12.93.29,24.43,12.08,24.43,25.02,0,12.66-.04,25.32,0,37.98q80.775-.03,161.54-.01-.015-44.04-.01-88.07a9.655,9.655,0,0,0-9.85-9.86q-65.13-.105-130.27-.02c-8.11.05-16.2,4.8-19.41,12.39-3.34,7.07-1.38,15.05-2.2,22.54-.78,3.97-7.25,3.71-7.69-.3a151.1,151.1,0,0,1-.02-15.2M90.29,283.26a16.306,16.306,0,0,0-13.75,15.76c-.11,28-.01,56-.05,84-.15,4.47.89,9.17,3.89,12.62,6.83,8.26,21.79,7.5,27.43-1.75,3.43-5.31,2.6-11.89,2.56-17.88.04-25.67.1-51.34.02-77,.06-10.17-10.36-17.88-20.1-15.75m381.97-.02a16.293,16.293,0,0,0-13.87,15.74c-.18,28.37.01,56.75-.06,85.12a17.507,17.507,0,0,0,3.5,11.04c6.35,8.35,20.86,8.31,27.09-.17,2.56-3.41,3.45-7.77,3.38-11.96-.09-27.99.05-55.98-.07-83.97.08-10.12-10.25-17.88-19.97-15.8M118.44,346.01c-.02,7.63.06,15.27-.01,22.91q80.82.045,161.64-.02,0-11.445,0-22.9-80.82,0-161.63.01m169.66.18c-.15,7.6.02,15.19.01,22.79q81.09-.12,162.17-.01c.07-7.59.01-15.18.01-22.76q-81.09,0-162.19-.02M118.44,376.94c0,4.28.32,8.62-.62,12.84a27.442,27.442,0,0,1-6.56,11.76c14.9-.29,29.82-.09,44.72-.12q91.515.015,183.01,0c39.52.13,79.06-.2,118.57.11a28.609,28.609,0,0,1-5.9-9.31c-1.91-4.87-1.25-10.19-1.35-15.29q-165.93,0-331.87.01m.65,32.51c-3.32,10.66-6.67,21.32-9.89,32.02,1.64-.21,3.61-.2,4.42-1.94,7.3-10.03,14.48-20.15,21.87-30.12-5.47.11-10.93,0-16.4.04m314.18-.05c7.43,10.03,14.66,20.21,22.01,30.3.78,1.62,2.68,1.53,4.22,1.6-3.17-10.63-6.55-21.19-9.8-31.8C444.22,409.38,438.75,409.48,433.27,409.4Z" fill="#1cbcd8"/>
    <path id="Path_90" data-name="Path 90" d="M350.43,253.63c3.01-1.01,6.39-.69,9.5-.28,3.37,1.07,3.42,6.33.05,7.45a31.521,31.521,0,0,1-8.89.04C347.98,259.87,347.55,255.14,350.43,253.63Z" fill="#1cbcd8"/>
    <path id="Path_91" data-name="Path 91" d="M372.3,253.34c9.2-.65,18.48-.05,27.71-.3,2.31.11,5.56-.48,6.77,2.11,1.54,2.57-.69,6.23-3.71,5.87-10.03.02-20.06.16-30.08-.07C369.09,260.63,368.57,254.43,372.3,253.34Z" fill="#1cbcd8"/>
    <path id="Path_92" data-name="Path 92" d="M133.39,441.56c3.16-.54,6.39-.2,9.59-.26q27.57,0,55.15-.01c1.74-.09,3.74.3,4.63,2a3.994,3.994,0,0,1-3.67,5.98q-32.085.135-64.19.01C130.41,449.84,129.12,442.73,133.39,441.56Z" fill="#1cbcd8"/>
    <path id="Path_93" data-name="Path 93" d="M221.27,441.45c5.57-.38,11.17,0,16.75-.19,2.36.12,5.49-.49,6.96,1.92,1.58,2.29-.09,5.99-2.94,6.04-6.99.13-14,.31-20.97-.08C217.09,448.44,217.25,441.89,221.27,441.45Z" fill="#1cbcd8"/>
  </g>
</svg>
